<svg class="animated" id="freepik_stories-passionate" xmlns="http://www.w3.org/2000/svg" viewBox="0 0 500 500" version="1.1" xmlns:xlink="http://www.w3.org/1999/xlink" xmlns:svgjs="http://svgjs.com/svgjs"><style>svg#freepik_stories-passionate:not(.animated) .animable {opacity: 0;}svg#freepik_stories-passionate.animated #freepik--background-complete--inject-2 {animation: 1s 1 forwards cubic-bezier(.36,-0.01,.5,1.38) fadeIn;animation-delay: 0s;}svg#freepik_stories-passionate.animated #freepik--speech-bubble--inject-2 {animation: 1s 1 forwards cubic-bezier(.36,-0.01,.5,1.38) zoomIn,1.5s Infinite  linear wind;animation-delay: 0s,1s;}svg#freepik_stories-passionate.animated #freepik--Character--inject-2 {animation: 1s 1 forwards cubic-bezier(.36,-0.01,.5,1.38) fadeIn;animation-delay: 0s;}svg#freepik_stories-passionate.animated #freepik--Furniture--inject-2 {animation: 1s 1 forwards cubic-bezier(.36,-0.01,.5,1.38) fadeIn;animation-delay: 0s;}svg#freepik_stories-passionate.animated #freepik--Device--inject-2 {animation: 1s 1 forwards cubic-bezier(.36,-0.01,.5,1.38) fadeIn;animation-delay: 0s;}svg#freepik_stories-passionate.animated #elof5rnc40un {animation: 1s 1 forwards ease-out slideUp;animation-delay: 0s;}svg#freepik_stories-passionate.animated #elmzhwx7hdu5a {animation: 1s 1 forwards ease-out slideUp;animation-delay: 0.045454545454545456s;opacity: 0}svg#freepik_stories-passionate.animated #elp4f5yraghsb {animation: 1s 1 forwards ease-out slideUp;animation-delay: 0.09090909090909091s;opacity: 0}svg#freepik_stories-passionate.animated #elnr9rx3gn9td {animation: 1s 1 forwards ease-out slideUp;animation-delay: 0.13636363636363635s;opacity: 0}svg#freepik_stories-passionate.animated #eluiqvmdt8e9a {animation: 1s 1 forwards ease-out slideUp;animation-delay: 0.18181818181818182s;opacity: 0}svg#freepik_stories-passionate.animated #eluivgzk01ct {animation: 1s 1 forwards ease-out slideUp;animation-delay: 0.2272727272727273s;opacity: 0}svg#freepik_stories-passionate.animated #elzxugng6okrc {animation: 1s 1 forwards ease-out slideUp;animation-delay: 0.2727272727272727s;opacity: 0}svg#freepik_stories-passionate.animated #ela25s98b7use {animation: 1s 1 forwards ease-out slideUp;animation-delay: 0.3181818181818182s;opacity: 0}svg#freepik_stories-passionate.animated #elca7ers7aoam {animation: 1s 1 forwards ease-out slideUp;animation-delay: 0.36363636363636365s;opacity: 0}svg#freepik_stories-passionate.animated #elt1nw9074t4h {animation: 1s 1 forwards ease-out slideUp;animation-delay: 0.4090909090909091s;opacity: 0}svg#freepik_stories-passionate.animated #elzwklgwfmlbd {animation: 1s 1 forwards ease-out slideUp;animation-delay: 0.4545454545454546s;opacity: 0}svg#freepik_stories-passionate.animated #el25sw6axx5lw {animation: 1s 1 forwards ease-out slideUp;animation-delay: 0.5s;opacity: 0}svg#freepik_stories-passionate.animated #elsklp6mjxzwg {animation: 1s 1 forwards ease-out slideUp;animation-delay: 0.5454545454545454s;opacity: 0}svg#freepik_stories-passionate.animated #elz7nk0j8dus {animation: 1s 1 forwards ease-out slideUp;animation-delay: 0.5909090909090909s;opacity: 0}svg#freepik_stories-passionate.animated #eltpa56cpv7i {animation: 1s 1 forwards ease-out slideUp;animation-delay: 0.6363636363636364s;opacity: 0}svg#freepik_stories-passionate.animated #elxek7rspy7y {animation: 1s 1 forwards ease-out slideUp;animation-delay: 0.6818181818181819s;opacity: 0}svg#freepik_stories-passionate.animated #elfmtcqw25gq {animation: 1s 1 forwards ease-out slideUp;animation-delay: 0.7272727272727273s;opacity: 0}svg#freepik_stories-passionate.animated #el78omzlepzla {animation: 1s 1 forwards ease-out slideUp;animation-delay: 0.7727272727272727s;opacity: 0}svg#freepik_stories-passionate.animated #elgfkicgau1c4 {animation: 1s 1 forwards ease-out slideUp;animation-delay: 0.8181818181818182s;opacity: 0}svg#freepik_stories-passionate.animated #elu0lag1t7yqa {animation: 1s 1 forwards ease-out slideUp;animation-delay: 0.8636363636363636s;opacity: 0}svg#freepik_stories-passionate.animated #el4wo3cf5wvz3 {animation: 1s 1 forwards ease-out slideUp;animation-delay: 0.9090909090909092s;opacity: 0}svg#freepik_stories-passionate.animated #el1m137zrs85t {animation: 1s 1 forwards ease-out slideUp;animation-delay: 0.9545454545454546s;opacity: 0}svg#freepik_stories-passionate.animated #freepik--musical-notes--inject-2 {animation: 1s 1 forwards ease-out slideUp,1.5s Infinite  linear floating;animation-delay: 0s,1.5s;}            @keyframes fadeIn {                0% {                    opacity: 0;                }                100% {                    opacity: 1;                }            }                    @keyframes zoomIn {                0% {                    opacity: 0;                    transform: scale(0.5);                }                100% {                    opacity: 1;                    transform: scale(1);                }            }                    @keyframes wind {                0% {                    transform: rotate( 0deg );                }                25% {                    transform: rotate( 1deg );                }                75% {                    transform: rotate( -1deg );                }            }                    @keyframes slideUp {                0% {                    opacity: 0;                    transform: translateY(30px);                }                100% {                    opacity: 1;                    transform: inherit;                }            }                    @keyframes floating {                0% {                    opacity: 1;                    transform: translateY(0px);                }                50% {                    transform: translateY(-10px);                }                100% {                    opacity: 1;                    transform: translateY(0px);                }            }        </style><g id="freepik--background-complete--inject-2" class="animable" style="transform-origin: 241.775px 223.085px;"><polygon points="277.38 334.4 257.21 415.62 265.38 415.62 286.31 334.4 277.38 334.4" style="fill: rgb(245, 245, 245); transform-origin: 271.76px 375.01px;" id="elbb1lr3bow9k" class="animable"></polygon><polygon points="335.81 334.4 355.97 415.62 347.81 415.62 326.88 334.4 335.81 334.4" style="fill: rgb(245, 245, 245); transform-origin: 341.425px 375.01px;" id="elsgx4k3qyre9" class="animable"></polygon><rect x="300.86" y="312.31" width="9.51" height="103.3" style="fill: rgb(245, 245, 245); transform-origin: 305.615px 363.96px;" id="el3ksyzadoy8h" class="animable"></rect><rect x="238.32" y="229.47" width="134.14" height="85.94" style="fill: rgb(224, 224, 224); transform-origin: 305.39px 272.44px;" id="elqxv4kaa7bk" class="animable"></rect><rect x="271.76" y="333.08" width="67.33" height="8.3" style="fill: rgb(245, 245, 245); transform-origin: 305.425px 337.23px;" id="el3vqmlxw5duw" class="animable"></rect><path d="M247.23,304.2a9.83,9.83,0,0,1,.09,1.57h-.18c-.14-4.2-.24-18.13-.24-34.63,0-10,.07-19,.1-25.6,0-3.21.08-5.84.1-7.76,0-.86.05-1.55.06-2.11a4,4,0,0,1,.07-.74,3.14,3.14,0,0,1,.07.74c0,.56,0,1.25.06,2.11,0,1.92.06,4.55.11,7.76,0,6.63.05,15.64.09,25.6,0,16.5-.1,30.43-.24,34.63h-.18A9.83,9.83,0,0,1,247.23,304.2Z" style="fill: rgb(245, 245, 245); transform-origin: 247.23px 270.35px;" id="elka6ss11qa2a" class="animable"></path><path d="M257.22,304.2a9.83,9.83,0,0,1,.09,1.57h-.19c-.13-4.2-.24-18.13-.24-34.63,0-10,.08-19,.1-25.6,0-3.21.08-5.84.11-7.76,0-.86,0-1.55.06-2.11a2.58,2.58,0,0,1,.07-.74,3.64,3.64,0,0,1,.06.74c0,.56,0,1.25.06,2.11,0,1.92.07,4.55.11,7.76,0,6.63.06,15.64.1,25.6,0,16.5-.11,30.43-.24,34.63h-.19A7.75,7.75,0,0,1,257.22,304.2Z" style="fill: rgb(245, 245, 245); transform-origin: 257.215px 270.35px;" id="elpdvjad09osg" class="animable"></path><path d="M267.2,304.2a9.83,9.83,0,0,1,.09,1.57h-.18c-.14-4.2-.24-18.13-.24-34.63,0-10,.07-19,.1-25.6,0-3.21.07-5.84.1-7.76,0-.86.05-1.55.06-2.11a3.14,3.14,0,0,1,.07-.74,4,4,0,0,1,.07.74c0,.56,0,1.25.06,2.11,0,1.92.06,4.55.1,7.76,0,6.63.06,15.64.1,25.6,0,16.5-.1,30.43-.24,34.63h-.18A9.83,9.83,0,0,1,267.2,304.2Z" style="fill: rgb(245, 245, 245); transform-origin: 267.2px 270.35px;" id="elyd4wbiuj4nf" class="animable"></path><path d="M277.18,304.2a8.47,8.47,0,0,1,.09,1.57h-.18c-.14-4.2-.24-18.13-.24-34.63,0-10,.07-19,.1-25.6,0-3.21.08-5.84.1-7.76,0-.86.05-1.55.07-2.11a3.64,3.64,0,0,1,.06-.74,2.58,2.58,0,0,1,.07.74c0,.56,0,1.25.06,2.11,0,1.92.06,4.55.11,7.76,0,6.63.06,15.64.09,25.6,0,16.5-.1,30.43-.24,34.63h-.18A9.83,9.83,0,0,1,277.18,304.2Z" style="fill: rgb(245, 245, 245); transform-origin: 277.18px 270.35px;" id="el8bk667s80ft" class="animable"></path><path d="M287.17,304.2a9.83,9.83,0,0,1,.09,1.57h-.19c-.13-4.2-.23-18.13-.23-34.63,0-10,.07-19,.09-25.6.05-3.21.08-5.84.11-7.76,0-.86,0-1.55.06-2.11a2.58,2.58,0,0,1,.07-.74,3.64,3.64,0,0,1,.06.74c0,.56,0,1.25.07,2.11,0,1.92.06,4.55.1,7.76,0,6.63.06,15.64.1,25.6,0,16.5-.1,30.43-.24,34.63h-.19A7.75,7.75,0,0,1,287.17,304.2Z" style="fill: rgb(245, 245, 245); transform-origin: 287.17px 270.35px;" id="elvzervt8e3e" class="animable"></path><path d="M297.15,304.2a9.83,9.83,0,0,1,.09,1.57h-.18c-.14-4.2-.24-18.13-.24-34.63,0-10,.07-19,.1-25.6,0-3.21.08-5.84.1-7.76,0-.86.05-1.55.06-2.11a4,4,0,0,1,.07-.74,3.14,3.14,0,0,1,.07.74c0,.56,0,1.25.06,2.11,0,1.92.06,4.55.1,7.76,0,6.63.06,15.64.1,25.6,0,16.5-.1,30.43-.24,34.63h-.18A9.83,9.83,0,0,1,297.15,304.2Z" style="fill: rgb(245, 245, 245); transform-origin: 297.15px 270.35px;" id="elrrqjrml537k" class="animable"></path><path d="M307.13,304.2a7.75,7.75,0,0,1,.1,1.57H307c-.14-4.2-.24-18.13-.24-34.63,0-10,.08-19,.1-25.6,0-3.21.08-5.84.11-7.76,0-.86,0-1.55.06-2.11a3.64,3.64,0,0,1,.06-.74,2.58,2.58,0,0,1,.07.74c0,.56,0,1.25.06,2.11,0,1.92.06,4.55.11,7.76,0,6.63.06,15.64.09,25.6,0,16.5-.1,30.43-.23,34.63H307A9.83,9.83,0,0,1,307.13,304.2Z" style="fill: rgb(245, 245, 245); transform-origin: 307.09px 270.35px;" id="eld0hqaynsjiq" class="animable"></path><path d="M317.12,304.2a9.83,9.83,0,0,1,.09,1.57H317c-.14-4.2-.24-18.13-.24-34.63,0-10,.07-19,.09-25.6.05-3.21.08-5.84.11-7.76,0-.86,0-1.55.06-2.11a3.14,3.14,0,0,1,.07-.74,3.64,3.64,0,0,1,.06.74c0,.56,0,1.25.07,2.11,0,1.92.06,4.55.1,7.76,0,6.63.06,15.64.1,25.6,0,16.5-.1,30.43-.24,34.63H317A9.83,9.83,0,0,1,317.12,304.2Z" style="fill: rgb(245, 245, 245); transform-origin: 317.09px 270.35px;" id="elzwazvo9eqmm" class="animable"></path><path d="M327.1,304.2a9.83,9.83,0,0,1,.09,1.57H327c-.14-4.2-.24-18.13-.24-34.63,0-10,.07-19,.1-25.6,0-3.21.08-5.84.1-7.76,0-.86,0-1.55.07-2.11a3.64,3.64,0,0,1,.06-.74,3.14,3.14,0,0,1,.07.74c0,.56,0,1.25.06,2.11,0,1.92.06,4.55.11,7.76,0,6.63.05,15.64.09,25.6,0,16.5-.1,30.43-.24,34.63H327A9.83,9.83,0,0,1,327.1,304.2Z" style="fill: rgb(245, 245, 245); transform-origin: 327.09px 270.35px;" id="el72pc0rn9na" class="animable"></path><path d="M337.09,304.2a9.83,9.83,0,0,1,.09,1.57H337c-.13-4.2-.23-18.13-.23-34.63,0-10,.07-19,.09-25.6,0-3.21.08-5.84.11-7.76,0-.86,0-1.55.06-2.11a2.58,2.58,0,0,1,.07-.74,3.64,3.64,0,0,1,.06.74c0,.56,0,1.25.06,2.11,0,1.92.07,4.55.11,7.76,0,6.63.06,15.64.1,25.6,0,16.5-.1,30.43-.24,34.63H337A7.75,7.75,0,0,1,337.09,304.2Z" style="fill: rgb(245, 245, 245); transform-origin: 337.1px 270.35px;" id="elstz017fq4v" class="animable"></path><path d="M347.07,304.2a9.83,9.83,0,0,1,.09,1.57H347c-.14-4.2-.24-18.13-.24-34.63,0-10,.07-19,.1-25.6,0-3.21.07-5.84.1-7.76,0-.86.05-1.55.06-2.11a3.14,3.14,0,0,1,.07-.74,4,4,0,0,1,.07.74c0,.56,0,1.25.06,2.11,0,1.92.06,4.55.1,7.76,0,6.63.06,15.64.1,25.6,0,16.5-.1,30.43-.24,34.63H347A9.83,9.83,0,0,1,347.07,304.2Z" style="fill: rgb(245, 245, 245); transform-origin: 347.09px 270.35px;" id="ela496l3u8fp" class="animable"></path><path d="M357.05,304.2a8.47,8.47,0,0,1,.09,1.57H357c-.14-4.2-.24-18.13-.24-34.63,0-10,.07-19,.1-25.6,0-3.21.08-5.84.1-7.76,0-.86.05-1.55.07-2.11a3.64,3.64,0,0,1,.06-.74,2.58,2.58,0,0,1,.07.74c0,.56,0,1.25.06,2.11,0,1.92.06,4.55.11,7.76,0,6.63.06,15.64.09,25.6,0,16.5-.1,30.43-.24,34.63H357A9.83,9.83,0,0,1,357.05,304.2Z" style="fill: rgb(245, 245, 245); transform-origin: 357.09px 270.35px;" id="elolxz1e7how" class="animable"></path><path d="M367,304.2a9.83,9.83,0,0,1,.09,1.57H367c-.14-4.2-.24-18.13-.24-34.63,0-10,.07-19,.09-25.6.05-3.21.08-5.84.11-7.76,0-.86,0-1.55.06-2.11a2.58,2.58,0,0,1,.07-.74,3.64,3.64,0,0,1,.06.74c0,.56,0,1.25.07,2.11,0,1.92.06,4.55.1,7.76,0,6.63.06,15.64.1,25.6,0,16.5-.1,30.43-.24,34.63H367A8.47,8.47,0,0,1,367,304.2Z" style="fill: rgb(245, 245, 245); transform-origin: 367.09px 270.35px;" id="elibog5l0r5zf" class="animable"></path><polygon points="453.77 174.74 352.31 174.74 353.74 31.34 452.67 30.7 453.77 174.74" style="fill: rgb(224, 224, 224); transform-origin: 403.04px 102.72px;" id="ellcdr40l64rj" class="animable"></polygon><rect x="345.42" y="31.34" width="98.94" height="143.41" style="fill: rgb(255, 255, 255); transform-origin: 394.89px 103.045px;" id="elizpmbcisu9" class="animable"></rect><path d="M445.17,175.55H344.62v-145H445.17Zm-98.94-1.61h97.33V32.14H346.23Z" style="fill: rgb(224, 224, 224); transform-origin: 394.895px 103.05px;" id="elv7npfzbflhg" class="animable"></path><rect x="357.72" y="46.87" width="74.35" height="112.34" style="fill: rgb(255, 255, 255); transform-origin: 394.895px 103.04px;" id="el0dvkcpm3676b" class="animable"></rect><path d="M432.07,159.21s0-.19,0-.56,0-.91,0-1.6c0-1.43,0-3.5,0-6.17,0-5.41-.06-13.26-.1-23.16-.05-19.81-.12-47.85-.19-80.85l.38.38-74.34,0h0l.41-.42c0,42.38-.06,81.45-.08,112.34l-.33-.33,54.08.17,15,.09,3.93,0,1.37,0s-.43,0-1.3,0l-3.87,0-14.89.09-54.29.17h-.34v-.34c0-30.89-.05-70-.08-112.34v-.42h.43l74.34,0h.39v.38c-.07,33.11-.14,61.23-.18,81.1,0,9.87-.08,17.69-.11,23.07,0,2.64,0,4.69,0,6.1,0,.67,0,1.18,0,1.56A2.61,2.61,0,0,1,432.07,159.21Z" style="fill: rgb(224, 224, 224); transform-origin: 395.01px 102.81px;" id="elou60beazfed" class="animable"></path><path d="M444.64,31.34c.18.13-2.39,3.8-5.83,8.12s-6.57,7.56-6.74,7.41,2.65-3.62,6.08-7.93S444.45,31.19,444.64,31.34Z" style="fill: rgb(224, 224, 224); transform-origin: 438.356px 39.1051px;" id="eldq7k5z6ruaq" class="animable"></path><path d="M444.36,174.74c-.18.15-3.08-3.21-6.47-7.5s-6-7.89-5.82-8,3.08,3.22,6.48,7.51S444.54,174.6,444.36,174.74Z" style="fill: rgb(224, 224, 224); transform-origin: 438.215px 166.991px;" id="el1b8j7szs07" class="animable"></path><path d="M345.41,174.63l13-16" style="fill: rgb(255, 255, 255); transform-origin: 351.91px 166.63px;" id="eltmcsv8sxl1" class="animable"></path><path d="M358.37,158.64c.18.15-2.58,3.84-6.15,8.26s-6.63,7.88-6.81,7.73,2.58-3.84,6.16-8.26S358.19,158.5,358.37,158.64Z" style="fill: rgb(224, 224, 224); transform-origin: 351.89px 166.635px;" id="el939vb28396q" class="animable"></path><path d="M345.42,31.34c.19-.15,3.05,3.18,6.41,7.42s5.93,7.81,5.75,8-3.05-3.18-6.4-7.43S345.24,31.48,345.42,31.34Z" style="fill: rgb(224, 224, 224); transform-origin: 351.5px 39.0514px;" id="ell61sih9igb" class="animable"></path><path d="M394.89,62.36A27.54,27.54,0,1,0,422.43,89.9,27.54,27.54,0,0,0,394.89,62.36Zm0,34.78a7.24,7.24,0,1,1,7.24-7.24A7.24,7.24,0,0,1,394.89,97.14Z" style="fill: rgb(235, 235, 235); transform-origin: 394.89px 89.9px;" id="el60bp7en991b" class="animable"></path><rect x="381.1" y="130.1" width="27.59" height="4.64" style="fill: rgb(235, 235, 235); transform-origin: 394.895px 132.42px;" id="el39sbi7uqsex" class="animable"></rect><g id="elkt333g787uc"><rect x="196.97" y="68.05" width="26.38" height="45.46" style="fill: rgb(235, 235, 235); transform-origin: 210.16px 90.78px; transform: rotate(180deg);" class="animable" id="eln32698cwvcr"></rect></g><g id="elj5rsgwbt0yg"><rect x="123.39" y="57.48" width="20.83" height="56.75" style="fill: rgb(235, 235, 235); transform-origin: 133.805px 85.855px; transform: rotate(180deg);" class="animable" id="elk2734b716dj"></rect></g><path d="M123.14,61.58c0-.17,4.77-.32,10.64-.32s10.64.15,10.64.32-4.76.32-10.64.32S123.14,61.76,123.14,61.58Z" style="fill: rgb(250, 250, 250); transform-origin: 133.78px 61.58px;" id="elc2d3dshv7tv" class="animable"></path><path d="M124.3,64.27c0-.17,4.5-.31,10.06-.31s10.06.14,10.06.31-4.5.32-10.06.32S124.3,64.45,124.3,64.27Z" style="fill: rgb(250, 250, 250); transform-origin: 134.36px 64.275px;" id="eluq53onqyawn" class="animable"></path><path d="M133.21,103c-.18,0-.32-7.52-.32-16.79s.14-16.79.32-16.79.31,7.52.31,16.79S133.38,103,133.21,103Z" style="fill: rgb(250, 250, 250); transform-origin: 133.205px 86.21px;" id="elr9f819am0f" class="animable"></path><path d="M123.39,108.23c0-.17,4.56-.32,10.19-.32s10.2.15,10.2.32-4.57.32-10.2.32S123.39,108.4,123.39,108.23Z" style="fill: rgb(250, 250, 250); transform-origin: 133.585px 108.23px;" id="elsuupw06me5q" class="animable"></path><path d="M123.39,110.67c0-.18,4.68-.32,10.45-.32s10.45.14,10.45.32-4.68.31-10.45.31S123.39,110.84,123.39,110.67Z" style="fill: rgb(250, 250, 250); transform-origin: 133.84px 110.665px;" id="elwqltzb3h8o" class="animable"></path><g id="ele0ln8tgsee"><rect x="144.2" y="51.35" width="16.73" height="62.88" style="fill: rgb(224, 224, 224); transform-origin: 152.565px 82.79px; transform: rotate(180deg);" class="animable" id="eligl3dkb93xf"></rect></g><path d="M144.1,80.23A15.81,15.81,0,0,1,146.68,82l6,4.58,6,4.59a15.72,15.72,0,0,1,2.42,2,14.68,14.68,0,0,1-2.68-1.66c-1.61-1.09-3.79-2.65-6.15-4.45s-4.45-3.48-5.93-4.73A15,15,0,0,1,144.1,80.23Z" style="fill: rgb(250, 250, 250); transform-origin: 152.6px 86.7px;" id="el16qjz1a7cwe" class="animable"></path><path d="M144,70.38c.12-.13,3.95,3,8.56,6.92s8.27,7.27,8.16,7.4-4-3-8.57-6.92S143.91,70.51,144,70.38Z" style="fill: rgb(250, 250, 250); transform-origin: 152.36px 77.54px;" id="el0iz60qnzsth" class="animable"></path><g id="elh9irzfd3ogo"><rect x="71.48" y="54.37" width="8" height="59.91" style="fill: rgb(235, 235, 235); transform-origin: 75.48px 84.325px; transform: rotate(180deg);" class="animable" id="el3tjcgkbdqap"></rect></g><path d="M71.82,62.53c0,.21,1.67.38,3.74.38s3.75-.17,3.75-.38-1.67-.38-3.75-.38S71.82,62.32,71.82,62.53Z" style="fill: rgb(250, 250, 250); transform-origin: 75.565px 62.53px;" id="eljo59i91rspm" class="animable"></path><path d="M71.65,61.23c0,.2,1.68.37,3.75.37s3.75-.17,3.75-.37-1.68-.38-3.75-.38S71.65,61,71.65,61.23Z" style="fill: rgb(250, 250, 250); transform-origin: 75.4px 61.225px;" id="elhi101fsd3hh" class="animable"></path><path d="M71.82,109.64c0,.21,1.67.38,3.74.38s3.75-.17,3.75-.38-1.67-.38-3.75-.38S71.82,109.43,71.82,109.64Z" style="fill: rgb(250, 250, 250); transform-origin: 75.565px 109.64px;" id="elat5qlatltf8" class="animable"></path><path d="M71.65,108.34c0,.21,1.68.37,3.75.37s3.75-.16,3.75-.37S77.47,108,75.4,108,71.65,108.13,71.65,108.34Z" style="fill: rgb(250, 250, 250); transform-origin: 75.4px 108.355px;" id="elypuihqhlmqf" class="animable"></path><path d="M75.73,100.51c.21,0,.38-6.86.38-15.32s-.17-15.32-.38-15.32-.38,6.86-.38,15.32S75.52,100.51,75.73,100.51Z" style="fill: rgb(250, 250, 250); transform-origin: 75.73px 85.19px;" id="el672edoprdey" class="animable"></path><g id="elyh76c0hc8xs"><rect x="107.35" y="53.98" width="16.01" height="59.91" style="fill: rgb(224, 224, 224); transform-origin: 115.355px 83.935px; transform: rotate(180deg);" class="animable" id="elty0u1bvm919"></rect></g><path d="M118.85,114.66a1.63,1.63,0,0,0,.19-.33c.11-.22.27-.55.45-1a17.28,17.28,0,0,0,1.17-4.06,10.66,10.66,0,0,0-.94-6.59,8.76,8.76,0,0,0-2.84-3.13,6.57,6.57,0,0,0-4.61-1.09,4.91,4.91,0,0,0-2.38,1.1,3.15,3.15,0,0,0-1.15,2.53,3.65,3.65,0,0,0,1.37,2.54,5,5,0,0,0,2.73,1.16,7.25,7.25,0,0,0,5.67-2.07A9.08,9.08,0,0,0,121.33,98a15.37,15.37,0,0,0-.83-6.69,12.34,12.34,0,0,0-3.93-5.84,6.44,6.44,0,0,0-3.45-1.36,4.49,4.49,0,0,0-3.6,1.28,2.94,2.94,0,0,0-.82,1.87,3.5,3.5,0,0,0,.55,2,5.21,5.21,0,0,0,3.23,2.21,7.54,7.54,0,0,0,7-2.37,11.74,11.74,0,0,0,2.75-6.74,16.6,16.6,0,0,0-.69-7A9.64,9.64,0,0,0,117.45,70a7.07,7.07,0,0,0-6.35-.67A3.34,3.34,0,0,0,109,71.76a3.82,3.82,0,0,0,.73,3,5,5,0,0,0,5.39,1.43,9.23,9.23,0,0,0,4.25-3A13.58,13.58,0,0,0,122.59,65a13.33,13.33,0,0,0-4-9.91,8.27,8.27,0,0,0-.83-.71,1.79,1.79,0,0,0-.31-.22,15.52,15.52,0,0,1,3.39,4.46A13,13,0,0,1,122.17,65,13.2,13.2,0,0,1,119,72.83a8.71,8.71,0,0,1-4,2.81,4.41,4.41,0,0,1-4.73-1.24,3.28,3.28,0,0,1-.59-2.52,2.68,2.68,0,0,1,1.7-2,6.42,6.42,0,0,1,5.74.65,9,9,0,0,1,3.81,5,15.9,15.9,0,0,1,.63,6.68A11.07,11.07,0,0,1,119,88.53a6.82,6.82,0,0,1-6.33,2.13,4.43,4.43,0,0,1-2.76-1.87,2.29,2.29,0,0,1,.18-2.92,3.74,3.74,0,0,1,3-1,5.68,5.68,0,0,1,3.06,1.2,11.77,11.77,0,0,1,3.69,5.49,14.59,14.59,0,0,1,.82,6.36,8.44,8.44,0,0,1-2.58,5.36,6.64,6.64,0,0,1-5.15,1.93c-1.76-.15-3.48-1.49-3.59-3.11a2.59,2.59,0,0,1,.94-2.08,4.26,4.26,0,0,1,2.1-1,6.12,6.12,0,0,1,4.26,1,8.28,8.28,0,0,1,2.73,2.94,10.32,10.32,0,0,1,1,6.34,19.15,19.15,0,0,1-1,4A14.2,14.2,0,0,0,118.85,114.66Z" style="fill: rgb(250, 250, 250); transform-origin: 115.647px 84.41px;" id="el3570tlxekyb" class="animable"></path><g id="el71n3bgsobw8"><rect x="79.36" y="59.36" width="27.77" height="54.56" style="fill: rgb(250, 250, 250); transform-origin: 93.245px 86.64px; transform: rotate(180deg);" class="animable" id="elfun92u5vr3"></rect></g><path d="M80.31,68.42c0,.21,6,.38,13.44.38s13.44-.17,13.44-.38-6-.37-13.44-.37S80.31,68.22,80.31,68.42Z" style="fill: rgb(224, 224, 224); transform-origin: 93.75px 68.425px;" id="elaxlet7m5gzt" class="animable"></path><path d="M80,72.56c0,.21,5.94.38,13.27.38s13.26-.17,13.26-.38-5.94-.38-13.26-.38S80,72.35,80,72.56Z" style="fill: rgb(224, 224, 224); transform-origin: 93.265px 72.56px;" id="elqb2q1yjb74g" class="animable"></path><path d="M79.08,107.75c0,.21,6.25.37,14,.37s14-.16,14-.37-6.25-.38-14-.38S79.08,107.54,79.08,107.75Z" style="fill: rgb(224, 224, 224); transform-origin: 93.08px 107.745px;" id="elxnai3rlmtz7" class="animable"></path><path d="M79.45,102.89c0,.2,6.1.37,13.61.37s13.62-.17,13.62-.37-6.1-.38-13.62-.38S79.45,102.68,79.45,102.89Z" style="fill: rgb(224, 224, 224); transform-origin: 93.065px 102.885px;" id="elbo4nbiizl2a" class="animable"></path><g id="eliakmwkt1s2"><rect x="160.92" y="53.6" width="16.01" height="59.91" style="fill: rgb(235, 235, 235); transform-origin: 168.925px 83.555px; transform: rotate(180deg);" class="animable" id="elkiaq16kgqme"></rect></g><path d="M172.42,114.27s.08-.1.19-.32.27-.56.46-1a17.36,17.36,0,0,0,1.16-4.06,10.57,10.57,0,0,0-.94-6.59,8.65,8.65,0,0,0-2.83-3.13,6.59,6.59,0,0,0-4.61-1.09,4.89,4.89,0,0,0-2.39,1.1,3.18,3.18,0,0,0-1.15,2.53,3.69,3.69,0,0,0,1.37,2.54,5,5,0,0,0,2.73,1.15,7.26,7.26,0,0,0,5.68-2.06,9.17,9.17,0,0,0,2.81-5.76,15.33,15.33,0,0,0-.83-6.68,12.34,12.34,0,0,0-3.92-5.84,6.47,6.47,0,0,0-3.46-1.36A4.51,4.51,0,0,0,163.1,85a2.91,2.91,0,0,0-.83,1.88,3.5,3.5,0,0,0,.55,2,5.23,5.23,0,0,0,3.23,2.2,7.53,7.53,0,0,0,7-2.36,11.77,11.77,0,0,0,2.75-6.74,16.63,16.63,0,0,0-.69-7A9.67,9.67,0,0,0,171,69.59a7.12,7.12,0,0,0-6.36-.66,3.33,3.33,0,0,0-2.07,2.44,3.88,3.88,0,0,0,.73,3,5,5,0,0,0,5.39,1.43,9.37,9.37,0,0,0,4.25-3,13.62,13.62,0,0,0,3.2-8.22,13.22,13.22,0,0,0-4-9.9,10.42,10.42,0,0,0-.83-.72,1.37,1.37,0,0,0-.31-.21,15.23,15.23,0,0,1,3.4,4.45,13,13,0,0,1-1.86,14.25,8.81,8.81,0,0,1-4,2.81A4.41,4.41,0,0,1,163.83,74a3.22,3.22,0,0,1-.6-2.52,2.69,2.69,0,0,1,1.7-1.95,6.42,6.42,0,0,1,5.74.65,8.93,8.93,0,0,1,3.81,5,16,16,0,0,1,.64,6.68,11.11,11.11,0,0,1-2.57,6.32,6.82,6.82,0,0,1-6.33,2.13,4.47,4.47,0,0,1-2.76-1.87,2.29,2.29,0,0,1,.18-2.92,3.78,3.78,0,0,1,3-1,5.69,5.69,0,0,1,3.06,1.21,11.62,11.62,0,0,1,3.69,5.48,14.64,14.64,0,0,1,.82,6.37,8.4,8.4,0,0,1-2.58,5.35,6.63,6.63,0,0,1-5.15,1.93c-1.76-.14-3.48-1.48-3.58-3.1a2.54,2.54,0,0,1,.93-2.08,4.41,4.41,0,0,1,2.1-1,6.12,6.12,0,0,1,4.26,1,8.34,8.34,0,0,1,2.73,2.93,10.36,10.36,0,0,1,1,6.35,18.71,18.71,0,0,1-1,4.05C172.6,113.8,172.39,114.26,172.42,114.27Z" style="fill: rgb(250, 250, 250); transform-origin: 169.207px 84.01px;" id="elpibzms5j4bs" class="animable"></path><g id="elsfdvb4rdyo"><rect x="49.24" y="50.58" width="22.24" height="62.93" style="fill: rgb(224, 224, 224); transform-origin: 60.36px 82.045px; transform: rotate(180deg);" class="animable" id="elwendxhvj9f"></rect></g><g id="elalx83wfij7"><rect x="176.93" y="57.48" width="20.8" height="56.02" style="fill: rgb(224, 224, 224); transform-origin: 187.33px 85.49px; transform: rotate(180deg);" class="animable" id="el1pkavwndkn6"></rect></g><path d="M198.25,85.42a17.52,17.52,0,0,0,3.31,2.35,11.33,11.33,0,0,0,4.18,1.16,10.72,10.72,0,0,0,5.2-.9c1.75-.75,3.36-1.71,5-2.28a7.91,7.91,0,0,1,4.53-.41,4.84,4.84,0,0,1,2.63,1.59,2.08,2.08,0,0,1,.52,1c-.06,0-.21-.34-.7-.83a4.94,4.94,0,0,0-2.55-1.32,7.65,7.65,0,0,0-4.23.52c-1.55.57-3.13,1.53-4.95,2.31a10.91,10.91,0,0,1-5.49.9,11.27,11.27,0,0,1-4.34-1.34,9.26,9.26,0,0,1-2.42-1.86A2.77,2.77,0,0,1,198.25,85.42Z" style="fill: rgb(250, 250, 250); transform-origin: 210.935px 87.3698px;" id="elsmb4w2k0azl" class="animable"></path><path d="M197.78,91a18.68,18.68,0,0,0,3.31,2.35,11.79,11.79,0,0,0,4.18,1.16,11,11,0,0,0,5.2-.9c1.75-.76,3.36-1.72,5-2.28a7.77,7.77,0,0,1,4.54-.41,4.79,4.79,0,0,1,2.62,1.59,1.93,1.93,0,0,1,.52,1c-.06,0-.21-.35-.7-.84a5,5,0,0,0-2.54-1.32,7.7,7.7,0,0,0-4.24.53c-1.55.56-3.13,1.53-4.95,2.31a11,11,0,0,1-5.49.9,11.27,11.27,0,0,1-4.34-1.35,9.67,9.67,0,0,1-2.42-1.85A3.13,3.13,0,0,1,197.78,91Z" style="fill: rgb(250, 250, 250); transform-origin: 210.465px 92.9454px;" id="elkbz8ytvnhw" class="animable"></path><path d="M198.13,73c0-.17,5.72-.31,12.79-.31s12.79.14,12.79.31-5.73.32-12.79.32S198.13,73.2,198.13,73Z" style="fill: rgb(250, 250, 250); transform-origin: 210.92px 73.005px;" id="el5vugcmsk2oh" class="animable"></path><path d="M188.7,66.51a3,3,0,0,0-1.81-.15,2.15,2.15,0,0,0-1.4,1.16A2,2,0,0,0,188.07,70a2.17,2.17,0,0,0,1.11-1.45,3.09,3.09,0,0,0-.22-1.81s.2.08.4.39a2.32,2.32,0,0,1,.26,1.5,2.56,2.56,0,0,1-1.29,1.89A2.56,2.56,0,0,1,185,67.29a2.59,2.59,0,0,1,1.84-1.37,2.21,2.21,0,0,1,1.51.21C188.62,66.31,188.72,66.49,188.7,66.51Z" style="fill: rgb(250, 250, 250); transform-origin: 187.255px 68.2786px;" id="ell2aeg3mj5ur" class="animable"></path><path d="M187.36,107.9c-.18,0-.32-7.86-.32-17.54s.14-17.54.32-17.54.31,7.85.31,17.54S187.53,107.9,187.36,107.9Z" style="fill: rgb(250, 250, 250); transform-origin: 187.355px 90.36px;" id="elgsbbavm69v9" class="animable"></path><rect x="29.78" y="113.19" width="215.29" height="12.29" style="fill: rgb(235, 235, 235); transform-origin: 137.425px 119.335px;" id="elhj9cnjfbomh" class="animable"></rect><rect x="226.28" y="113.19" width="18.8" height="12.29" style="fill: rgb(224, 224, 224); transform-origin: 235.68px 119.335px;" id="el216jrybfg1l" class="animable"></rect></g><g id="freepik--speech-bubble--inject-2" class="animable" style="transform-origin: 276.858px 103.273px;"><path d="M228.48,145.25l9.92-17.48a46.84,46.84,0,1,1,11.22,12.48v0Z" style="fill: rgb(250, 250, 250); transform-origin: 276.8px 103.201px;" id="elfdwt3c4at1" class="animable"></path><path d="M228.48,145.25l21.18-4.85a.14.14,0,0,0,.11-.16l0-.05,0,0-.18.18a47.77,47.77,0,0,0,9.61,5.8A46.73,46.73,0,0,0,272,149.81a41.81,41.81,0,0,0,7.4.37c1.28-.07,2.57-.1,3.88-.21l3.95-.6a47.19,47.19,0,0,0,37.13-36.82,47.74,47.74,0,0,0-.56-20.81,46,46,0,0,0-10-19.23l-1.91-2.1c-.63-.71-1.37-1.29-2.05-1.94s-1.36-1.3-2.12-1.84L305.43,65a20.73,20.73,0,0,0-2.32-1.54L300.73,62l-2.48-1.21a22.5,22.5,0,0,0-2.51-1.11,47.67,47.67,0,0,0-21-3.22,46.2,46.2,0,0,0-19.24,5.68,47.52,47.52,0,0,0-22.2,27.32,50.55,50.55,0,0,0-2,15.21,46.39,46.39,0,0,0,2.29,13.13,47.55,47.55,0,0,0,4.69,10.06v-.13l-9.81,17.55,10-17.42a.15.15,0,0,0,0-.13,47.23,47.23,0,0,1-4.61-10,46.27,46.27,0,0,1-2.22-13,50.1,50.1,0,0,1,2.07-15.08,47,47,0,0,1,22-27,45.73,45.73,0,0,1,19-5.61,47.54,47.54,0,0,1,20.73,3.2A22.74,22.74,0,0,1,298,61.25l2.46,1.19,2.34,1.43a18.29,18.29,0,0,1,2.3,1.52L307.34,67c.76.54,1.39,1.23,2.09,1.83s1.42,1.22,2,1.92l1.88,2.08a45.63,45.63,0,0,1,9.92,19,47.27,47.27,0,0,1,.56,20.57,46.25,46.25,0,0,1-7.8,17.88A46.76,46.76,0,0,1,287.13,149l-3.91.6c-1.3.11-2.58.15-3.85.22a41.25,41.25,0,0,1-7.34-.35,46.62,46.62,0,0,1-12.74-3.58,48,48,0,0,1-9.59-5.71.14.14,0,0,0-.19.19l0,0,.07-.21Z" style="fill: rgb(38, 50, 56); transform-origin: 276.858px 103.273px;" id="el1upy7p57u4g" class="animable"></path><path d="M258.39,100.91a12.11,12.11,0,0,1,2.73-6.7,11.62,11.62,0,0,1,5.82-4,9.34,9.34,0,0,1,10.53,4.23,9.34,9.34,0,0,1,9.82-5,11.53,11.53,0,0,1,6.22,3.38A12,12,0,0,1,297,99.17a14.65,14.65,0,0,1-1.32,9.1,20.8,20.8,0,0,1-6.77,7.07c-4.51,3.06-10.45,6.91-10.45,6.91s-5.4-3.59-10.21-6.15a20.7,20.7,0,0,1-7.5-6.29A14.68,14.68,0,0,1,258.39,100.91Z" style="fill: #8048D8; transform-origin: 277.794px 105.785px;" id="el3adabe7heao" class="animable"></path></g><g id="freepik--Character--inject-2" class="animable" style="transform-origin: 164.263px 272.712px;"><path d="M102.9,318.67c0,1-11.74,19.89-10.63,49.17s23.4,105.61,23.4,105.61H216.54S219,463,225.26,437.19s18.62-45.91,19-66.13-5-49.67-5-49.67Z" style="fill: rgb(38, 50, 56); transform-origin: 168.238px 396.06px;" id="elszevyb7p0z" class="animable"></path><path d="M175.34,382.18a2.32,2.32,0,0,1-.37-.34l-1-1-.72-.76-.91-.84a28.4,28.4,0,0,0-2.26-2l-1.36-1.12L167.18,375c-1.05-.81-2.27-1.51-3.51-2.32a68,68,0,0,0-8.63-4.26,75,75,0,0,0-9.16-3c-1.44-.33-2.81-.68-4.11-.9l-1.88-.34-1.74-.25c-1.11-.18-2.12-.26-3-.35s-1.65-.16-2.27-.19l-1.45-.1a1.56,1.56,0,0,1-.5-.08l.5,0h1.46c.63,0,1.4,0,2.29.1s1.91.12,3,.28l1.75.21,1.9.32c1.31.2,2.69.53,4.14.85a69.53,69.53,0,0,1,9.25,2.95,64.41,64.41,0,0,1,8.68,4.33c1.24.83,2.47,1.55,3.51,2.38l1.54,1.14,1.35,1.16c.87.71,1.59,1.44,2.23,2.07l.88.88.69.8.93,1.11C175.26,382,175.36,382.17,175.34,382.18Z" style="fill: rgb(69, 90, 100); transform-origin: 153.136px 372.695px;" id="elt1nwp1kkkaa" class="animable"></path><path d="M194.3,366.06c0,.09-1.31.55-3.33,1.61a32.27,32.27,0,0,0-3.42,2.06,45.32,45.32,0,0,0-3.83,3,55.12,55.12,0,0,0-6.06,6.51c-1.42,1.79-2.25,3-2.32,2.9a4,4,0,0,1,.49-.88c.33-.54.86-1.31,1.54-2.24a44.69,44.69,0,0,1,6-6.68,37.88,37.88,0,0,1,3.91-3,28.55,28.55,0,0,1,3.52-2,21.09,21.09,0,0,1,2.53-1A4.11,4.11,0,0,1,194.3,366.06Z" style="fill: rgb(69, 90, 100); transform-origin: 184.82px 374.103px;" id="el1wgeo9g0nel" class="animable"></path><path d="M212,362.69a29.94,29.94,0,0,0-5.49-1.59,29.44,29.44,0,0,0-13.62,1.2,64,64,0,0,0-12.51,5.88l-3.63,2.14a9,9,0,0,1-1.36.74,8.17,8.17,0,0,1,1.26-.91c.82-.56,2-1.35,3.55-2.28a57.12,57.12,0,0,1,12.54-6.07,28.38,28.38,0,0,1,13.83-1.07,19.2,19.2,0,0,1,4.05,1.24c.47.19.8.39,1,.5S212,362.67,212,362.69Z" style="fill: rgb(69, 90, 100); transform-origin: 193.695px 365.691px;" id="elw22ws0yvwz" class="animable"></path><path d="M174.83,471.76a1.34,1.34,0,0,1,0-.23c0-.19,0-.41,0-.68q.06-1,.15-2.61c.14-2.31.33-5.58.57-9.59.44-8.1.88-19.3,1-31.67s-.24-23.58-.59-31.68c-.19-4-.35-7.29-.46-9.6q-.08-1.65-.12-2.61l0-.68a2.07,2.07,0,0,1,0-.23.65.65,0,0,1,0,.23l.07.67c0,.64.12,1.51.22,2.61.18,2.26.4,5.54.62,9.59.44,8.1.81,19.31.74,31.7s-.57,23.59-1.11,31.69c-.26,4.05-.51,7.32-.72,9.58-.11,1.1-.19,2-.25,2.61,0,.27-.06.49-.08.67A.65.65,0,0,1,174.83,471.76Z" style="fill: rgb(69, 90, 100); transform-origin: 175.932px 426.97px;" id="el4u4xp7zonxs" class="animable"></path><path d="M218.56,182.06c-6-2.32-13-5.8-13.4-11.83-.38-5.17,4.44-9.56,4.84-14.72.52-6.84-6.44-11.82-10.74-17.4a29,29,0,0,1-3.06-4.92c-.26-1-.49-2.05-.67-3.09-1-6-.41-12.1-.25-18.16s-4.1-12.07-6.85-17.57c-3.57-7.13-7.36-12.59-15.77-13.58h0c-19.12,20.66-30.39,48.85-24.06,75.44,2.24,9.41,6.23,18.58,12.64,26.17A46.32,46.32,0,0,0,186.73,198c.18-1.46.36-2.92.53-4.38a22.46,22.46,0,0,0,15.43,3.46l-4.26-5.06a15.19,15.19,0,0,0,15.41-.62,6.78,6.78,0,0,1-4.14-3.35C213.71,188.6,217.88,185.76,218.56,182.06Z" style="fill: rgb(38, 50, 56); transform-origin: 182.696px 139.395px;" id="el6ofzg7uzwm9" class="animable"></path><path d="M95.06,180.83c2-4.44,4.67-9.16,3.48-13.42-.52-1.89-1.79-3.53-2-5.5-.52-5.07,6-9.77,6.48-15,.58-6.53-8.54-11.23-5.7-17.57,1.36-3.05,5-5,7.33-7.67,5.9-6.8-.14-16.65,14.59-31.37L127.16,114a532.9,532.9,0,0,0,9.47,65.09L95.87,193.5C92.11,190.77,93.1,185.27,95.06,180.83Z" style="fill: rgb(38, 50, 56); transform-origin: 114.975px 141.9px;" id="elwk4hplx90d" class="animable"></path><path d="M162.08,73.3c-6.46-2.23-13.68-1.48-20.06,1s-12,6.47-17.29,10.83c-3,2.45-5.86,5.08-7.71,8.44-3.38,6.13-2.72,13.59-2,20.55.61,5.62,1.31,11.51,4.52,16.16a17.39,17.39,0,0,0,13.11,7.38l42.87-52.16A23.48,23.48,0,0,0,162.08,73.3Z" style="fill: rgb(38, 50, 56); transform-origin: 144.979px 104.817px;" id="eljazrxyqjr1" class="animable"></path><path d="M180.67,101.37c-2.57-10.84-12.14-23-22.86-20L133.63,92.09a19,19,0,0,0-11.17,19.65c0,.42-.09-.08,0,.23l13,65.89a20,20,0,0,0,23.44,15.75h0a20,20,0,0,0,16-23c-.9-5.34-1.54-9.17-1.54-9.14s13.19-7.19,12.95-26C186.2,126.18,183.53,113.41,180.67,101.37Z" style="fill: rgb(255, 190, 157); transform-origin: 154.318px 137.443px;" id="elz2203msvv6q" class="animable"></path><path d="M155.32,99.91a19.7,19.7,0,0,0,5.49.19,19.37,19.37,0,0,0,5.41-.92c0-.13-2.44.27-5.44.47S155.33,99.77,155.32,99.91Z" style="fill: rgb(235, 153, 110); transform-origin: 160.77px 99.6818px;" id="el5pgislitrwx" class="animable"></path><path d="M159.29,98.56A13.29,13.29,0,0,0,166,97.8a21.65,21.65,0,0,0-3.34.36A24.86,24.86,0,0,0,159.29,98.56Z" style="fill: rgb(235, 153, 110); transform-origin: 162.645px 98.2489px;" id="el1tavfcy0r8g" class="animable"></path><path d="M157.82,136c.12,0,.15-.78.81-1.37s1.41-.61,1.42-.73-.19-.16-.53-.14a2,2,0,0,0-1.81,1.7C157.67,135.84,157.76,136,157.82,136Z" style="fill: rgb(235, 153, 110); transform-origin: 158.875px 134.878px;" id="eliipohgeebj" class="animable"></path><path d="M171,116.19c.2-.38,2.29.43,4.76-.26s3.93-2.41,4.28-2.19c.17.1,0,.72-.6,1.51a6.46,6.46,0,0,1-3.33,2.12,6.19,6.19,0,0,1-3.89-.17C171.31,116.83,170.91,116.36,171,116.19Z" style="fill: rgb(38, 50, 56); transform-origin: 175.545px 115.663px;" id="el87g0eg8j7ov" class="animable"></path><path d="M146.29,118.89c.31-.3,2.07,1.09,4.62,1.16s4.47-1.15,4.74-.83c.13.15-.18.7-1,1.27a6.53,6.53,0,0,1-3.8,1,6.29,6.29,0,0,1-3.67-1.31C146.4,119.59,146.14,119,146.29,118.89Z" style="fill: rgb(38, 50, 56); transform-origin: 150.964px 120.173px;" id="el7i9ys4ckr2" class="animable"></path><path d="M167.16,131.52c0-.14,1.49-.68,4-1.44.63-.18,1.22-.41,1.25-.87a3.23,3.23,0,0,0-.75-1.83l-2.75-4.58c-3.84-6.52-6.74-11.93-6.48-12.08s3.6,5,7.44,11.53c.93,1.62,1.82,3.15,2.67,4.62a3.8,3.8,0,0,1,.77,2.47,1.64,1.64,0,0,1-.9,1.12,4.09,4.09,0,0,1-1.07.34C168.78,131.38,167.2,131.66,167.16,131.52Z" style="fill: rgb(38, 50, 56); transform-origin: 167.864px 121.136px;" id="elh2nzrn7f185" class="animable"></path><path d="M148.34,156.61s3.36,11.3,25.64,8.52l-.62-3.66A70.18,70.18,0,0,1,148.34,156.61Z" style="fill: rgb(235, 153, 110); transform-origin: 161.16px 161.09px;" id="elhmqw9ldatz" class="animable"></path><path d="M167.14,137.78a4.61,4.61,0,0,0-4.36-1,4.19,4.19,0,0,0-2.6,2,2.67,2.67,0,0,0,.31,3,3.09,3.09,0,0,0,3.45.27,9.52,9.52,0,0,0,2.89-2.48,2.71,2.71,0,0,0,.6-.87.86.86,0,0,0-.17-.94" style="fill: rgb(235, 153, 110); transform-origin: 163.679px 139.526px;" id="eluaot98mbz" class="animable"></path><path d="M160,134.54c.41-.1.89,2.64,3.56,4.18s5.54.74,5.62,1.12c.07.16-.55.64-1.78.89a7,7,0,0,1-4.67-.78,6,6,0,0,1-2.8-3.54C159.67,135.29,159.85,134.56,160,134.54Z" style="fill: rgb(38, 50, 56); transform-origin: 164.492px 137.69px;" id="eleurju1j6kaq" class="animable"></path><path d="M144,110.52c-.07-.74,2.37-1.55,4.91-3.19s4.37-3.42,5-3c.29.19.2,1-.39,2A10.19,10.19,0,0,1,146,111C144.83,111.11,144.09,110.86,144,110.52Z" style="fill: rgb(38, 50, 56); transform-origin: 149.034px 107.647px;" id="el2gyfyty0pke" class="animable"></path><path d="M168.79,101.16c.68-.48,2.93.46,5.74.91s5.26.39,5.72,1.08c.19.32-.27.84-1.39,1.23a10.08,10.08,0,0,1-4.82.24,9.77,9.77,0,0,1-4.41-1.84C168.72,102.05,168.48,101.4,168.79,101.16Z" style="fill: rgb(38, 50, 56); transform-origin: 174.477px 102.916px;" id="elmequ81uxole" class="animable"></path><path d="M168.42,78.58a26,26,0,0,0-17.1-3.34,34.42,34.42,0,0,0-16.2,7C128,87.78,123,95.55,119.82,103.75a10.41,10.41,0,0,0-1,5c.2,1.65,1.15,3.2,1,4.86-.17,1.89-1.7,3.41-2.4,5.19a7.67,7.67,0,0,0,.09,5.48,17.36,17.36,0,0,0-.74,2.12c-.07.26-.13.44-.19.74a6.69,6.69,0,0,0-.14.84,8.19,8.19,0,0,0,0,1.56,9.7,9.7,0,0,0,1.53,4.32c1.32,2,2.52,2.65,2.87,2.38s0-1.46-.42-3.41a9.54,9.54,0,0,1-.15-3.27,4.58,4.58,0,0,1,.19-.75c.9,1,1.89,1.9,2.87,2.81-1.41-2.05-1.11-4.75.06-7l.07,0c.19-.1.25,0,.16,0l.66,0,.72,0a12.71,12.71,0,0,1,2.76.54c.47.15,1,.32,1.44.53l.37.16.62.23a11.75,11.75,0,0,0,1.25.36h.05a6,6,0,0,0,6.74-3.67l3.7-9c2.51-5.37,6.71-10.14,9.13-14.23a52.43,52.43,0,0,1,7.72-10,30,30,0,0,1,6.5-5.36c1.62-.93,2.73-1.32,2.83-1.79a7.83,7.83,0,0,1,5.47,3.22C174.39,82.26,171.34,80.39,168.42,78.58Z" style="fill: rgb(38, 50, 56); transform-origin: 145.058px 105.625px;" id="elddpbolzt75k" class="animable"></path><path d="M127.41,125.26c-.28-.49-10.4-2.32-8.81,7.83,1.55,9.87,11.15,6.25,11.12,6S127.41,125.26,127.41,125.26Z" style="fill: rgb(255, 190, 157); transform-origin: 124.075px 132.378px;" id="eleh2ezleh8np" class="animable"></path><path d="M126.08,135.8s-.15.15-.42.33a1.71,1.71,0,0,1-1.28.23c-1.1-.21-2.24-1.73-2.57-3.5a5.62,5.62,0,0,1,.09-2.53A2,2,0,0,1,123,128.8a.89.89,0,0,1,1.09.31c.17.26.14.46.2.47s.18-.2,0-.59a1.21,1.21,0,0,0-.49-.56,1.38,1.38,0,0,0-1-.1,2.48,2.48,0,0,0-1.55,1.82,5.84,5.84,0,0,0-.16,2.84c.38,2,1.7,3.67,3.19,3.86a1.87,1.87,0,0,0,1.53-.51C126.1,136,126.12,135.82,126.08,135.8Z" style="fill: rgb(235, 153, 110); transform-origin: 123.54px 132.572px;" id="eljzpjypbgc7" class="animable"></path><polygon points="130.84 167.32 137.81 166.46 175.07 171.93 186.42 177.03 159.9 196.32 129.68 174.71 130.84 167.32" style="fill: rgb(255, 190, 157); transform-origin: 158.05px 181.39px;" id="els4xh95dydja" class="animable"></polygon><path d="M102.39,278.89c-.71.44-3,19.47-5.08,27s-10.2,19.29-3.67,40.95l148.09-9s2.65-7.06-1.13-18.06-20.07-34.38-20.07-34.38l2.77-62.92-14.38-37-30.11-12.18s-4.66,12.52-18.71,10.93-29.18-17.09-29.18-17.09l-17.24,2Z" style="fill: #8048D8; transform-origin: 166.889px 256.99px;" id="elh6o0dbgukd4" class="animable"></path><g id="elxu8izegwa1r"><g style="opacity: 0.3; transform-origin: 161.805px 248.152px;" class="animable" id="el37fy566y4i3"><path d="M205.44,238.22c-2.9-8.59-6.79-17.35-14-22.84-5.29-4-11.93-5.89-18.53-6.75-5.51-.71-11.23-.75-16.48,1.05-6.8,2.31-12.24,7.45-17,12.82-8.14,9.18-15,19.42-21.79,29.62-5.55,8.3-10.12,18.78-15.67,27.08,21.61-9.37,40.68-23.46,52.4-43.9a29.9,29.9,0,0,1,9.82-10.68c6.37-3.86,11.82-1.86,17.19,3.3s9.81,10,12.82,16.81a315.13,315.13,0,0,0,18.44,35.45c2.15,3.56,4.9,7.43,9,7.95C214.1,272.33,211,254.81,205.44,238.22Z" id="el2i1h4xds1nf" class="animable" style="transform-origin: 161.805px 248.152px;"></path></g></g><path d="M114.73,169.05c-.88.29-4.16.33-11.81,1.8s-11.86,7.29-17.45,18.47-15.3,37.94-16.77,55.59,1.47,40.3,12.06,41.77,29.1-12.83,36.74-20.18c3.8-3.65,16.57-15.48,25.64-28.09A207.66,207.66,0,0,0,159,212l-17.07-18.53-23.23,21.47Z" style="fill: #8048D8; transform-origin: 113.673px 227.918px;" id="el9cnimfgcixl" class="animable"></path><path d="M118.71,214.91a3.36,3.36,0,0,1-.38.47c-.26.3-.65.74-1.16,1.28-1,1.09-2.59,2.62-4.62,4.37a81.76,81.76,0,0,1-7.5,5.73c-2.92,2-6.25,4.06-9.74,6.19a42,42,0,0,0-14.43,14.72,35,35,0,0,0-2.66,5.73c-.5,1.4-.72,2.2-.76,2.19a2.38,2.38,0,0,1,.11-.59c.11-.38.21-1,.46-1.67a31.35,31.35,0,0,1,2.53-5.84A41.28,41.28,0,0,1,95,232.5c3.49-2.13,6.82-4.15,9.74-6.14a86.29,86.29,0,0,0,7.53-5.61c2.06-1.71,3.63-3.19,4.71-4.23l1.23-1.21A2.29,2.29,0,0,1,118.71,214.91Z" style="fill: rgb(38, 50, 56); transform-origin: 98.085px 235.25px;" id="el1jaxib9t25i" class="animable"></path><path d="M167.72,210.71c.14.56-.56,3.51,8,5.06s10.68,1,10.68,1l17.44-15s-5.63-4.56-9.28-6.15-24.07-.6-24.07-.6Z" style="fill: rgb(255, 190, 157); transform-origin: 185.78px 205.79px;" id="elnqo6vg1fudj" class="animable"></path><path d="M214.45,271.93a3.08,3.08,0,0,1-.88.07,22,22,0,0,1-2.4-.13,27.12,27.12,0,0,1-7.65-2,26.84,26.84,0,0,1-6.73-4.17,20,20,0,0,1-1.74-1.65c-.38-.42-.58-.66-.55-.69s.94.82,2.52,2.06a30.68,30.68,0,0,0,14.2,6.12C213.2,271.8,214.45,271.84,214.45,271.93Z" style="fill: rgb(38, 50, 56); transform-origin: 204.474px 267.683px;" id="elnb29vzb19i" class="animable"></path><path d="M142.82,194.39a14.25,14.25,0,0,1,10-4.23c6.55-.18,6.91.55,13.09,0s10.17-6,11.44-4.36,0,4.14,0,4.14,7.82-3.41,8.54-1.42,0,2.55,0,2.55a1.62,1.62,0,0,1,2.37,1.45v.07a4,4,0,0,1-2.86,4.41l-6.91,3.93s-3.87,7.4-6.6,10.31S159,212,159,212Z" style="fill: rgb(255, 190, 157); transform-origin: 165.56px 199.129px;" id="el7nbfoorh8as" class="animable"></path><path d="M154.34,190.46a13.28,13.28,0,0,0,5.76-3.16,8.81,8.81,0,0,1,1.18-1,2.08,2.08,0,0,1,1.48-.36,1.92,1.92,0,0,1,1.32,2.2,3.88,3.88,0,0,1-1.58,2.28" style="fill: rgb(255, 190, 157); transform-origin: 159.227px 188.19px;" id="el9k65ui80bbw" class="animable"></path><path d="M178,189.94a5.35,5.35,0,0,1-2.15.82,37.13,37.13,0,0,1-5.49.62,17.19,17.19,0,0,0-5.3,1.09c-1.28.54-1.93,1.13-2,1.06a4.41,4.41,0,0,1,1.84-1.39,14.73,14.73,0,0,1,5.41-1.28c2.15-.15,4.08-.22,5.46-.46S178,189.87,178,189.94Z" style="fill: rgb(235, 153, 110); transform-origin: 170.53px 191.733px;" id="elfy7u5judjig" class="animable"></path><path d="M185.81,191.25a5.29,5.29,0,0,1-2.11,1.37c-1.42.66-3.55,1.07-5.73,1.83a9.85,9.85,0,0,0-2.82,1.53,12.31,12.31,0,0,0-1.82,1.93,16.72,16.72,0,0,1-1.53,2,9.52,9.52,0,0,1,1.23-2.18,10.7,10.7,0,0,1,1.82-2.07,9.42,9.42,0,0,1,2.94-1.66c2.26-.79,4.36-1.13,5.78-1.68S185.76,191.18,185.81,191.25Z" style="fill: rgb(235, 153, 110); transform-origin: 178.805px 195.577px;" id="elmj8rqd87x0g" class="animable"></path><path d="M171.16,188.52a4.91,4.91,0,0,1-1.07.43c-.7.23-1.73.53-3,.82a42.62,42.62,0,0,1-10.29.87,25.26,25.26,0,0,0-10,1.56,18.35,18.35,0,0,0-3.62,2.17,4.08,4.08,0,0,1,.8-.83,11.73,11.73,0,0,1,2.67-1.68c2.41-1.18,6.13-1.8,10.17-1.74a48.85,48.85,0,0,0,10.21-.71C169.57,188.92,171.13,188.44,171.16,188.52Z" style="fill: rgb(235, 153, 110); transform-origin: 157.17px 191.441px;" id="elwnngj0lgajm" class="animable"></path><path d="M188.43,194.76a5,5,0,0,1-.93.61l-2.64,1.47a40.13,40.13,0,0,0-3.79,2.36,17.42,17.42,0,0,0-3.92,3.7c-1.13,1.54-1.9,3.24-2.78,4.7a12.21,12.21,0,0,1-2.87,3.51,6.58,6.58,0,0,1-2.74,1.36,2.67,2.67,0,0,1-1.12.06c0-.05.39-.07,1.07-.26a6.92,6.92,0,0,0,2.56-1.44,12.66,12.66,0,0,0,2.69-3.47,47.42,47.42,0,0,1,2.77-4.77,17.1,17.1,0,0,1,4.06-3.79,33.76,33.76,0,0,1,3.89-2.28c1.14-.58,2.08-1,2.72-1.33A4.53,4.53,0,0,1,188.43,194.76Z" style="fill: rgb(235, 153, 110); transform-origin: 178.035px 203.662px;" id="elrotke43poai" class="animable"></path><path d="M118.71,214.91a4.9,4.9,0,0,1,.39-.41l1.21-1.16L125,209l16.84-15.68.16-.15.14.16,17.1,19.07.11.13-.08.15c-2.35,4.64-4.95,9.45-7.93,14.21a181.27,181.27,0,0,1-17,23,199.92,199.92,0,0,1-16.45,16.62A175.77,175.77,0,0,1,101,280a2.14,2.14,0,0,1,.29-.25l.87-.7,3.38-2.63c2.88-2.35,7.1-5.69,12-10.19a202.58,202.58,0,0,0,16.33-16.65,184.81,184.81,0,0,0,17-23c3-4.74,5.57-9.54,7.92-14.16l0,.29-17-19.12h.3l-17,15.55-4.72,4.29-1.25,1.11Z" style="fill: rgb(38, 50, 56); transform-origin: 130.175px 236.585px;" id="eledswcff0qjt" class="animable"></path><path d="M118.71,214.91c-.1,0,.24-1.71.37-4.48.09-1.38.06-3,0-4.86s-.27-3.84-.52-5.95c-.51-4.2-1.17-8-1.59-10.75-.21-1.37-.37-2.49-.46-3.26a6.08,6.08,0,0,1-.09-1.21,4.78,4.78,0,0,1,.29,1.18c.17.87.38,1.95.62,3.23.51,2.74,1.23,6.52,1.75,10.75.25,2.11.41,4.14.48,6a42,42,0,0,1-.11,4.9c0,.7-.13,1.33-.21,1.88a11.66,11.66,0,0,1-.23,1.4A5.73,5.73,0,0,1,118.71,214.91Z" style="fill: rgb(38, 50, 56); transform-origin: 118.003px 199.655px;" id="elco5zl2xu11a" class="animable"></path><path d="M208.92,185.49s13.89,1.68,24.05,21.17,28.39,45,27.15,60.32-1.45,29.22-10.78,31.3-28.81-12.86-28.81-12.86-10.9-25.82-17.92-39.73c-5.68-11.26-16.19-28.94-16.19-28.94l17.44-15Z" style="fill: #8048D8; transform-origin: 223.3px 241.984px;" id="ela5whjgopbxp" class="animable"></path><path d="M257.61,269.67a.89.89,0,0,1,0-.23c0-.18,0-.4-.07-.66s-.06-.66-.12-1.08-.13-.92-.25-1.47a29.14,29.14,0,0,0-3.31-8.79,48.27,48.27,0,0,0-8.71-10.92c-3.77-3.7-8.34-7.33-12.87-11.45a130.85,130.85,0,0,1-11.86-12.54c-3.42-4.05-6.37-7.81-8.79-11s-4.3-5.85-5.57-7.69l-1.45-2.14-.36-.56c-.08-.13-.12-.2-.11-.21a.94.94,0,0,1,.15.18l.41.53,1.52,2.08c1.33,1.81,3.25,4.41,5.7,7.58s5.44,6.89,8.87,10.92a135.34,135.34,0,0,0,11.84,12.47c4.51,4.1,9.08,7.75,12.86,11.48a47.88,47.88,0,0,1,8.69,11.09,28.06,28.06,0,0,1,3.19,8.94,13.9,13.9,0,0,1,.2,1.48c.05.43.07.79.08,1.09s0,.49,0,.67A.82.82,0,0,1,257.61,269.67Z" style="fill: rgb(38, 50, 56); transform-origin: 230.896px 235.3px;" id="eldhxys0d7qp8" class="animable"></path><path d="M221,286.13a7.84,7.84,0,0,1-.37-.7l-1-2c-.84-1.77-2-4.34-3.49-7.53-2.91-6.36-6.8-15.22-11.33-24.9-2.27-4.83-4.52-9.39-6.64-13.51s-4.13-7.76-5.87-10.79-3.19-5.47-4.22-7.14L187,217.6a4,4,0,0,1-.37-.69,5.61,5.61,0,0,1,.46.63l1.24,1.88c1.08,1.64,2.58,4.05,4.36,7.06s3.83,6.66,6,10.76,4.41,8.67,6.68,13.51c4.54,9.69,8.37,18.57,11.2,25,1.39,3.17,2.53,5.75,3.33,7.6.38.86.67,1.55.9,2.07A4.36,4.36,0,0,1,221,286.13Z" style="fill: rgb(38, 50, 56); transform-origin: 203.815px 251.52px;" id="el5zdhv85tjav" class="animable"></path><path d="M146.45,268.41a4.44,4.44,0,0,1-1,.39,24.2,24.2,0,0,1-2.84.75,33.28,33.28,0,0,1-19.06-1.72,25.2,25.2,0,0,1-2.65-1.24A4.4,4.4,0,0,1,120,266c0-.08,1.4.63,3.71,1.47a37.79,37.79,0,0,0,9.32,2.08,37.19,37.19,0,0,0,9.54-.39C145,268.77,146.43,268.32,146.45,268.41Z" style="fill: rgb(38, 50, 56); transform-origin: 133.225px 268.109px;" id="el2zagpdq0sr2" class="animable"></path><path d="M178.56,263.09c0,.16-3.22-.37-7.2-.34s-7.17.57-7.2.41a7.6,7.6,0,0,1,2.07-.51,32.76,32.76,0,0,1,5.13-.42,32.32,32.32,0,0,1,5.13.37A7.52,7.52,0,0,1,178.56,263.09Z" style="fill: rgb(38, 50, 56); transform-origin: 171.36px 262.709px;" id="el3kkhyp9d9so" class="animable"></path><path d="M206.68,191.51c.14.08-1,2-1.71,4.64s-.66,4.89-.82,4.89a10.15,10.15,0,0,1,.31-5A10.39,10.39,0,0,1,206.68,191.51Z" style="fill: rgb(38, 50, 56); transform-origin: 205.332px 196.275px;" id="eleya3hzfyed" class="animable"></path><g id="el7iqqlv1o2ts"><g style="opacity: 0.3; transform-origin: 168.139px 268.648px;" class="animable" id="elx4tpz4icsdr"><path d="M153.06,273.11c-.74-1.19.1-3.34,2.62-5.49a19,19,0,0,1,4.9-2.93,24.34,24.34,0,0,1,13.74-1.39,18.77,18.77,0,0,1,5.39,1.88c2.9,1.6,4.16,3.54,3.66,4.85s-2.53,2-5.2,2.35c-1.34.19-2.86.36-4.5.49l-5.27.49-5.26.58c-1.63.2-3.16.34-4.51.43C155.94,274.53,153.84,274.35,153.06,273.11Z" id="el59dzj30awgk" class="animable" style="transform-origin: 168.139px 268.648px;"></path></g></g><path d="M242.63,322.29l-.39,0-1.16.12-4.42.38-16.29,1.32-53.75,4.15-53.77,4-16.3,1.16-4.43.28L91,333.8a1.64,1.64,0,0,1-.39,0,2,2,0,0,1,.39-.06l1.15-.11,4.42-.39,16.29-1.31,53.76-4.15,53.76-4,16.3-1.15,4.44-.29,1.15-.06A2,2,0,0,1,242.63,322.29Z" style="fill: rgb(38, 50, 56); transform-origin: 166.62px 328.044px;" id="elqqk04m60i6h" class="animable"></path><path d="M104.54,346.43a5.48,5.48,0,0,1-1.38-1.66,13.22,13.22,0,0,1-1.62-10.07,5.25,5.25,0,0,1,.78-2c.08,0-.2.8-.42,2.08a15.19,15.19,0,0,0,0,5,15.48,15.48,0,0,0,1.62,4.77C104.1,345.73,104.6,346.38,104.54,346.43Z" style="fill: rgb(38, 50, 56); transform-origin: 102.858px 339.565px;" id="elk0hkkciflt" class="animable"></path><path d="M125.06,345.37a7,7,0,0,1-.78-2,25.1,25.1,0,0,1-.93-5.08,26.18,26.18,0,0,1,.12-5.16,7.27,7.27,0,0,1,.46-2.09c.17,0-.39,3.24-.06,7.21S125.22,345.32,125.06,345.37Z" style="fill: rgb(38, 50, 56); transform-origin: 124.176px 338.205px;" id="elkgy1jgwxm7" class="animable"></path><path d="M147.74,342.73c-.16,0,.12-3-.26-6.69s-1.23-6.56-1.08-6.61a6.68,6.68,0,0,1,.71,1.85A27.62,27.62,0,0,1,148,336a26.91,26.91,0,0,1,.06,4.79A5.94,5.94,0,0,1,147.74,342.73Z" style="fill: rgb(38, 50, 56); transform-origin: 147.261px 336.08px;" id="eltzs7wq1yqg8" class="animable"></path><path d="M173.44,342.45c-.08,0,.2-.88.44-2.29a18.33,18.33,0,0,0-1.42-10.86,22.37,22.37,0,0,1-1-2.09,7.11,7.11,0,0,1,1.34,1.93,16.14,16.14,0,0,1,1.73,5.42,15.85,15.85,0,0,1-.28,5.68A6.71,6.71,0,0,1,173.44,342.45Z" style="fill: rgb(38, 50, 56); transform-origin: 173.063px 334.83px;" id="el8l55s19vgw" class="animable"></path><path d="M201.86,341.45a22.08,22.08,0,0,0-1.57-16.14,7.46,7.46,0,0,1,1.28,2.11,17.76,17.76,0,0,1,1.56,5.76,18,18,0,0,1-.42,5.95A7.82,7.82,0,0,1,201.86,341.45Z" style="fill: rgb(38, 50, 56); transform-origin: 201.751px 333.38px;" id="elsc8njgvle7n" class="animable"></path><path d="M225.78,337a43.07,43.07,0,0,0,1.55-6.93,43.61,43.61,0,0,0-.13-7.1,6.22,6.22,0,0,1,.52,2,20.24,20.24,0,0,1,.13,5.11,19.73,19.73,0,0,1-1.15,5A6.51,6.51,0,0,1,225.78,337Z" style="fill: rgb(38, 50, 56); transform-origin: 226.867px 329.985px;" id="elq6q72mxckir" class="animable"></path><path d="M138.48,168.9c.11-4.3,2.92-8.41,2.1-12.64-.68-3.58-3.76-6.14-6.67-8.34s-5-4.6-6-8.12L102,167.58c1.3,1.56,3.6,1.69,5.58,2.17a12.88,12.88,0,0,1,7.73,5.61c2,3.15,2.52,7.08,4.84,10a10.85,10.85,0,0,0,12.62,2.85,12,12,0,0,0,6.73-11.28C139.41,174.22,138.41,171.6,138.48,168.9Z" style="fill: rgb(38, 50, 56); transform-origin: 121.365px 164.469px;" id="eldjdi0x1l7w" class="animable"></path></g><g id="freepik--Furniture--inject-2" class="animable" style="transform-origin: 250px 444.545px;"><rect x="218.73" y="415.64" width="202.54" height="13.3" style="fill: rgb(69, 90, 100); transform-origin: 320px 422.29px;" id="elavjq1yy06a9" class="animable"></rect><rect x="229.96" y="428.94" width="180.07" height="44.51" style="fill: rgb(69, 90, 100); transform-origin: 319.995px 451.195px;" id="elbbdlknendr9" class="animable"></rect><path d="M421.27,428.94c0,.14-45.34.26-101.27.26s-101.27-.12-101.27-.26,45.33-.26,101.27-.26S421.27,428.79,421.27,428.94Z" style="fill: rgb(38, 50, 56); transform-origin: 320px 428.94px;" id="elgxchkua09z" class="animable"></path><path d="M398.45,468.11s0-.19,0-.55,0-.9,0-1.6c0-1.42,0-3.5,0-6.21,0-5.42,0-13.32-.08-23.31l.15.14-157,.12h0l.26-.26c0,10.85,0,21.49,0,31.67l-.25-.25,111.86.11,33.09.08,8.93,0,2.32,0h.8s-.26,0-.77,0l-2.29,0-8.87,0-33,.08-112,.11h-.26V436.18h.27l157,.11h.14v.15c0,10-.06,18-.08,23.4,0,2.69,0,4.76,0,6.17,0,.69,0,1.21,0,1.58S398.45,468.11,398.45,468.11Z" style="fill: rgb(38, 50, 56); transform-origin: 320.045px 452.21px;" id="elkc03xmcu8b" class="animable"></path><path d="M305.34,451.19h22.89S317.23,464.71,305.34,451.19Z" style="fill: rgb(224, 224, 224); transform-origin: 316.785px 454.194px;" id="elklowuirpfqe" class="animable"></path><path d="M459.43,473.18c0,.14-93.77.26-209.42.26s-209.44-.12-209.44-.26,93.75-.26,209.44-.26S459.43,473,459.43,473.18Z" style="fill: rgb(38, 50, 56); transform-origin: 250px 473.18px;" id="eltluzd0ruxzf" class="animable"></path></g><g id="freepik--Device--inject-2" class="animable" style="transform-origin: 372.175px 367.384px;"><path d="M394.25,401c-.13-2.8-1.75-34.93-2.1-41.85,0-.84-.07-1.31-.07-1.31s-10.22-5.25-21.11-4.39h0c-7.62.87-14.52,5.24-14.52,5.24V360c0,6.93,0,39.1,0,41.9,0,3.15,3.15,12.84,14.67,13.62H375v.08l5.24-.26C391.75,414,394.4,404.18,394.25,401Z" style="fill: rgb(224, 224, 224); transform-origin: 375.353px 384.477px;" id="el6vepbydt1p6" class="animable"></path><path d="M394.25,401a7,7,0,0,1-.11,1.88A15.26,15.26,0,0,1,392.3,408a16.33,16.33,0,0,1-2.38,3.11,15.47,15.47,0,0,1-3.78,2.72,17.16,17.16,0,0,1-5.12,1.6l-.71.12-.72,0-1.47.08-3.07.17h-.18v-.26l.19.17a33.82,33.82,0,0,1-6.21-.28,15.89,15.89,0,0,1-6.23-2.53,15.64,15.64,0,0,1-4.75-5.4,16.49,16.49,0,0,1-1.34-3.53,8.91,8.91,0,0,1-.29-1.93c0-.64,0-1.29,0-1.94,0-10.35,0-21.69,0-33.59v-8l.12-.07a42,42,0,0,1,7.17-3.42,33,33,0,0,1,7.46-1.85l-.22.27h0l0-.25.25,0a38.59,38.59,0,0,1,11.3,1,48.33,48.33,0,0,1,9.94,3.46l.11.06v.13c.61,12.95,1.12,23.73,1.47,31.31.17,3.75.29,6.71.38,8.76,0,1,.06,1.76.08,2.31,0,.24,0,.44,0,.59a.63.63,0,0,1,0,.2.55.55,0,0,1,0-.2l-.05-.59c0-.55-.08-1.31-.14-2.31-.12-2-.29-5-.51-8.75-.4-7.57-1-18.35-1.66-31.3l.12.19a47.31,47.31,0,0,0-9.84-3.4,38,38,0,0,0-11.15-.94l.23-.27h0l0,.23-.24,0A38.08,38.08,0,0,0,356.59,359l.12-.22v7.82c0,11.9,0,23.24,0,33.59v1.93a9.51,9.51,0,0,0,.27,1.83,16.85,16.85,0,0,0,1.3,3.43,15,15,0,0,0,4.59,5.25,15.48,15.48,0,0,0,6.06,2.49,33.62,33.62,0,0,0,6.13.3h.17v.24l-.2-.17,3.06-.14,1.47-.07.73,0,.69-.12a16.75,16.75,0,0,0,5-1.52,15.48,15.48,0,0,0,3.74-2.64,16.11,16.11,0,0,0,2.38-3,15.86,15.86,0,0,0,1.92-5,10.21,10.21,0,0,0,.18-1.38C394.23,401.2,394.25,401,394.25,401Z" style="fill: rgb(38, 50, 56); transform-origin: 375.274px 384.461px;" id="eli0gmjv7ner" class="animable"></path><path d="M394.25,401l-.4-6.73-37.41.33v7.3c0,3.15,3.16,12.84,14.68,13.62l3.92.08,5.23-.26C391.74,414,394.4,404.18,394.25,401Z" style="fill: rgb(38, 50, 56); transform-origin: 375.348px 404.935px;" id="eliktw381ibyd" class="animable"></path><path d="M380.21,368.08s0-.43-.25-1.16a4.81,4.81,0,0,0-1.78-2.55,4.63,4.63,0,1,0,0,7.43,4.85,4.85,0,0,0,1.78-2.55c.21-.73.2-1.17.25-1.17s0,.11,0,.32a3.77,3.77,0,0,1-.09.9,4.8,4.8,0,0,1-1.76,2.79,5,5,0,0,1-4.79.79,5.09,5.09,0,0,1,0-9.59,5,5,0,0,1,4.79.78,4.82,4.82,0,0,1,1.76,2.8,3.77,3.77,0,0,1,.09.9C380.24,368,380.23,368.08,380.21,368.08Z" style="fill: rgb(38, 50, 56); transform-origin: 375.21px 368.083px;" id="elpmgs4ty3ge" class="animable"></path><path d="M374.74,366.42c.05.08-.51.29-.77,1.05a1.57,1.57,0,0,0,.14,1.27,1.5,1.5,0,0,0,1.31.75,1.53,1.53,0,0,0,1.3-.76,1.59,1.59,0,0,0,.13-1.28c-.26-.75-.83-1-.78-1s.68,0,1.12.89a2,2,0,0,1,0,1.65,2,2,0,0,1-1.73,1.05,2,2,0,0,1-1.73-1,1.93,1.93,0,0,1-.07-1.65C374.06,366.44,374.75,366.37,374.74,366.42Z" style="fill: rgb(38, 50, 56); transform-origin: 375.438px 368.224px;" id="elmost1zmllw" class="animable"></path><path d="M375.35,365.7c.14,0,.26.53.26,1.18s-.12,1.17-.26,1.17-.26-.53-.26-1.17S375.21,365.7,375.35,365.7Z" style="fill: rgb(38, 50, 56); transform-origin: 375.35px 366.875px;" id="el4te037ohfph" class="animable"></path><path d="M376.14,378.93a.65.65,0,1,1-.65-.65A.65.65,0,0,1,376.14,378.93Z" style="fill: rgb(255, 255, 255); transform-origin: 375.49px 378.93px;" id="el2l1siyrp15x" class="animable"></path><circle cx="359.53" cy="397.9" r="0.31" style="fill: rgb(69, 90, 100); transform-origin: 359.53px 397.9px;" id="elk09fz5faw3" class="animable"></circle><circle cx="359.53" cy="399.63" r="0.31" style="fill: rgb(69, 90, 100); transform-origin: 359.53px 399.63px;" id="elzykkl85gsl" class="animable"></circle><circle cx="361.64" cy="397.9" r="0.31" style="fill: rgb(69, 90, 100); transform-origin: 361.64px 397.9px;" id="el89rnpqqanio" class="animable"></circle><circle cx="361.64" cy="399.63" r="0.31" style="fill: rgb(69, 90, 100); transform-origin: 361.64px 399.63px;" id="elrfxgw15wwgm" class="animable"></circle><circle cx="363.75" cy="397.9" r="0.31" style="fill: rgb(69, 90, 100); transform-origin: 363.75px 397.9px;" id="elto33oog5wya" class="animable"></circle><circle cx="363.75" cy="399.63" r="0.31" style="fill: rgb(69, 90, 100); transform-origin: 363.75px 399.63px;" id="el32g4nc20zje" class="animable"></circle><circle cx="365.86" cy="397.9" r="0.31" style="fill: rgb(69, 90, 100); transform-origin: 365.86px 397.9px;" id="elp9imrb8kow8" class="animable"></circle><circle cx="365.86" cy="399.63" r="0.31" style="fill: rgb(69, 90, 100); transform-origin: 365.86px 399.63px;" id="elwn20vh3ip0a" class="animable"></circle><circle cx="367.97" cy="397.9" r="0.31" style="fill: rgb(69, 90, 100); transform-origin: 367.97px 397.9px;" id="el0blc7rn2xk3u" class="animable"></circle><circle cx="367.97" cy="399.63" r="0.31" style="fill: rgb(69, 90, 100); transform-origin: 367.97px 399.63px;" id="elbwg6tqvz114" class="animable"></circle><circle cx="370.08" cy="397.9" r="0.31" style="fill: rgb(69, 90, 100); transform-origin: 370.08px 397.9px;" id="elmzkco17i51" class="animable"></circle><circle cx="370.08" cy="399.63" r="0.31" style="fill: rgb(69, 90, 100); transform-origin: 370.08px 399.63px;" id="el9kwkhww651k" class="animable"></circle><circle cx="372.19" cy="397.9" r="0.31" style="fill: rgb(69, 90, 100); transform-origin: 372.19px 397.9px;" id="eldf86ho4tv79" class="animable"></circle><circle cx="372.19" cy="399.63" r="0.31" style="fill: rgb(69, 90, 100); transform-origin: 372.19px 399.63px;" id="el915gye1o5k" class="animable"></circle><circle cx="374.29" cy="397.9" r="0.31" style="fill: rgb(69, 90, 100); transform-origin: 374.29px 397.9px;" id="elsl2msh9qle" class="animable"></circle><circle cx="374.29" cy="399.63" r="0.31" style="fill: rgb(69, 90, 100); transform-origin: 374.29px 399.63px;" id="elyy4o4ue09zo" class="animable"></circle><circle cx="376.4" cy="397.9" r="0.31" style="fill: rgb(69, 90, 100); transform-origin: 376.4px 397.9px;" id="el2xzgjv8mkdn" class="animable"></circle><circle cx="376.4" cy="399.63" r="0.31" style="fill: rgb(69, 90, 100); transform-origin: 376.4px 399.63px;" id="eluzev9o2ioxm" class="animable"></circle><circle cx="378.51" cy="397.9" r="0.31" style="fill: rgb(69, 90, 100); transform-origin: 378.51px 397.9px;" id="elww32u5elbk" class="animable"></circle><circle cx="378.51" cy="399.63" r="0.31" style="fill: rgb(69, 90, 100); transform-origin: 378.51px 399.63px;" id="elp61mhwvqp2k" class="animable"></circle><path d="M380.93,397.9a.31.31,0,0,1-.31.31.31.31,0,0,1,0-.61A.31.31,0,0,1,380.93,397.9Z" style="fill: rgb(69, 90, 100); transform-origin: 380.648px 397.905px;" id="elt4uau5csktb" class="animable"></path><path d="M380.93,399.63a.31.31,0,0,1-.31.31.3.3,0,0,1-.3-.31.29.29,0,0,1,.3-.3A.3.3,0,0,1,380.93,399.63Z" style="fill: rgb(69, 90, 100); transform-origin: 380.625px 399.635px;" id="elejn08lpz52" class="animable"></path><path d="M383,397.9a.31.31,0,1,1-.31-.3A.31.31,0,0,1,383,397.9Z" style="fill: rgb(69, 90, 100); transform-origin: 382.69px 397.91px;" id="elaxy583n0q9" class="animable"></path><path d="M383,399.63a.31.31,0,0,1-.62,0,.31.31,0,0,1,.62,0Z" style="fill: rgb(69, 90, 100); transform-origin: 382.69px 399.63px;" id="elhxp0hw5k1pb" class="animable"></path><path d="M385.14,397.9a.3.3,0,0,1-.3.31.31.31,0,1,1,0-.61A.3.3,0,0,1,385.14,397.9Z" style="fill: rgb(69, 90, 100); transform-origin: 384.807px 397.905px;" id="elz85snwdgho" class="animable"></path><path d="M385.14,399.63a.3.3,0,0,1-.3.31.31.31,0,0,1-.31-.31.3.3,0,0,1,.31-.3A.29.29,0,0,1,385.14,399.63Z" style="fill: rgb(69, 90, 100); transform-origin: 384.835px 399.635px;" id="elfoqd2gqiah" class="animable"></path><path d="M387.25,397.9a.3.3,0,0,1-.3.31.31.31,0,1,1,0-.61A.3.3,0,0,1,387.25,397.9Z" style="fill: rgb(69, 90, 100); transform-origin: 386.917px 397.905px;" id="el7nm6lqgz15l" class="animable"></path><path d="M387.25,399.63a.3.3,0,0,1-.3.31.31.31,0,0,1-.31-.31.3.3,0,0,1,.31-.3A.29.29,0,0,1,387.25,399.63Z" style="fill: rgb(69, 90, 100); transform-origin: 386.945px 399.635px;" id="eluaifxzo3k8" class="animable"></path><path d="M389.36,397.9a.31.31,0,1,1-.3-.3A.31.31,0,0,1,389.36,397.9Z" style="fill: rgb(69, 90, 100); transform-origin: 389.05px 397.91px;" id="el1u0sw2uv6mg" class="animable"></path><path d="M389.36,399.63a.31.31,0,1,1-.61,0,.31.31,0,0,1,.61,0Z" style="fill: rgb(69, 90, 100); transform-origin: 389.055px 399.685px;" id="elccvi73kekxu" class="animable"></path><path d="M391.47,397.9a.31.31,0,1,1-.61,0,.31.31,0,0,1,.61,0Z" style="fill: rgb(69, 90, 100); transform-origin: 391.165px 397.955px;" id="elekfofhp9nef" class="animable"></path><path d="M391.47,399.63a.31.31,0,1,1-.61,0,.31.31,0,0,1,.61,0Z" style="fill: rgb(69, 90, 100); transform-origin: 391.165px 399.685px;" id="eltgwkbwtnvb9" class="animable"></path><circle cx="359.53" cy="401.44" r="0.31" style="fill: rgb(69, 90, 100); transform-origin: 359.53px 401.44px;" id="el1r2gc12syb2" class="animable"></circle><circle cx="359.53" cy="403.16" r="0.31" style="fill: rgb(69, 90, 100); transform-origin: 359.53px 403.16px;" id="elzgtgsdlv0mp" class="animable"></circle><circle cx="361.64" cy="401.44" r="0.31" style="fill: rgb(69, 90, 100); transform-origin: 361.64px 401.44px;" id="el4ubze3dobl7" class="animable"></circle><circle cx="361.64" cy="403.16" r="0.31" style="fill: rgb(69, 90, 100); transform-origin: 361.64px 403.16px;" id="elteudjy5z3z" class="animable"></circle><circle cx="363.75" cy="401.44" r="0.31" style="fill: rgb(69, 90, 100); transform-origin: 363.75px 401.44px;" id="elpuev9iz13dg" class="animable"></circle><circle cx="363.75" cy="403.16" r="0.31" style="fill: rgb(69, 90, 100); transform-origin: 363.75px 403.16px;" id="elm5fkmjn5gon" class="animable"></circle><circle cx="365.86" cy="401.44" r="0.31" style="fill: rgb(69, 90, 100); transform-origin: 365.86px 401.44px;" id="el9y7cok002o8" class="animable"></circle><circle cx="365.86" cy="403.16" r="0.31" style="fill: rgb(69, 90, 100); transform-origin: 365.86px 403.16px;" id="eldub9xygmcr" class="animable"></circle><circle cx="367.97" cy="401.44" r="0.31" style="fill: rgb(69, 90, 100); transform-origin: 367.97px 401.44px;" id="elk2ayquqv11" class="animable"></circle><circle cx="367.97" cy="403.16" r="0.31" style="fill: rgb(69, 90, 100); transform-origin: 367.97px 403.16px;" id="el4j08mqis0ea" class="animable"></circle><circle cx="370.08" cy="401.44" r="0.31" style="fill: rgb(69, 90, 100); transform-origin: 370.08px 401.44px;" id="elycqeft9184" class="animable"></circle><circle cx="370.08" cy="403.16" r="0.31" style="fill: rgb(69, 90, 100); transform-origin: 370.08px 403.16px;" id="elfxyvno00vng" class="animable"></circle><circle cx="372.19" cy="401.44" r="0.31" style="fill: rgb(69, 90, 100); transform-origin: 372.19px 401.44px;" id="el904dt2xskkd" class="animable"></circle><circle cx="372.19" cy="403.16" r="0.31" style="fill: rgb(69, 90, 100); transform-origin: 372.19px 403.16px;" id="elmebmymb6rvn" class="animable"></circle><circle cx="374.29" cy="401.44" r="0.31" style="fill: rgb(69, 90, 100); transform-origin: 374.29px 401.44px;" id="el2anvlck4x8b" class="animable"></circle><circle cx="374.29" cy="403.16" r="0.31" style="fill: rgb(69, 90, 100); transform-origin: 374.29px 403.16px;" id="elhp0rqpk7xyg" class="animable"></circle><circle cx="376.4" cy="401.44" r="0.31" style="fill: rgb(69, 90, 100); transform-origin: 376.4px 401.44px;" id="el59ydio8jwj8" class="animable"></circle><circle cx="376.4" cy="403.16" r="0.31" style="fill: rgb(69, 90, 100); transform-origin: 376.4px 403.16px;" id="elvcep4qmv2l" class="animable"></circle><circle cx="378.51" cy="401.44" r="0.31" style="fill: rgb(69, 90, 100); transform-origin: 378.51px 401.44px;" id="el9xo7yvizqe6" class="animable"></circle><circle cx="378.51" cy="403.16" r="0.31" style="fill: rgb(69, 90, 100); transform-origin: 378.51px 403.16px;" id="elrb2u9jgrkwf" class="animable"></circle><path d="M380.93,401.44a.3.3,0,0,1-.31.3.29.29,0,0,1-.3-.3.3.3,0,0,1,.3-.31A.31.31,0,0,1,380.93,401.44Z" style="fill: rgb(69, 90, 100); transform-origin: 380.625px 401.435px;" id="elskbd6hub2k" class="animable"></path><path d="M380.93,403.16a.31.31,0,0,1-.31.31.3.3,0,0,1-.3-.31.29.29,0,0,1,.3-.3A.3.3,0,0,1,380.93,403.16Z" style="fill: rgb(69, 90, 100); transform-origin: 380.625px 403.165px;" id="el75ju46xjibr" class="animable"></path><path d="M383,401.44a.31.31,0,0,1-.62,0,.31.31,0,1,1,.62,0Z" style="fill: rgb(69, 90, 100); transform-origin: 382.69px 401.44px;" id="ellxeqku66mrg" class="animable"></path><path d="M383,403.16a.31.31,0,1,1-.62,0,.31.31,0,0,1,.62,0Z" style="fill: rgb(69, 90, 100); transform-origin: 382.69px 403.16px;" id="ele1yebszgctv" class="animable"></path><path d="M385.14,401.44a.29.29,0,0,1-.3.3.3.3,0,0,1-.31-.3.31.31,0,0,1,.31-.31A.3.3,0,0,1,385.14,401.44Z" style="fill: rgb(69, 90, 100); transform-origin: 384.835px 401.435px;" id="elka6n0gexwy" class="animable"></path><path d="M385.14,403.16a.3.3,0,0,1-.3.31.31.31,0,0,1-.31-.31.3.3,0,0,1,.31-.3A.29.29,0,0,1,385.14,403.16Z" style="fill: rgb(69, 90, 100); transform-origin: 384.835px 403.165px;" id="elf3ce52n5c16" class="animable"></path><path d="M387.25,401.44a.29.29,0,0,1-.3.3.3.3,0,0,1-.31-.3.31.31,0,0,1,.31-.31A.3.3,0,0,1,387.25,401.44Z" style="fill: rgb(69, 90, 100); transform-origin: 386.945px 401.435px;" id="elaz0mcl67egk" class="animable"></path><path d="M387.25,403.16a.3.3,0,0,1-.3.31.31.31,0,0,1-.31-.31.3.3,0,0,1,.31-.3A.29.29,0,0,1,387.25,403.16Z" style="fill: rgb(69, 90, 100); transform-origin: 386.945px 403.165px;" id="elac2jjtqlxvp" class="animable"></path><path d="M389.36,401.44a.31.31,0,0,1-.61,0,.31.31,0,1,1,.61,0Z" style="fill: rgb(69, 90, 100); transform-origin: 389.055px 401.385px;" id="elb77hu5sv168" class="animable"></path><path d="M389.36,403.16a.31.31,0,1,1-.61,0,.31.31,0,0,1,.61,0Z" style="fill: rgb(69, 90, 100); transform-origin: 389.055px 403.215px;" id="elgdh04yvttv" class="animable"></path><path d="M391.47,401.44a.31.31,0,0,1-.61,0,.31.31,0,1,1,.61,0Z" style="fill: rgb(69, 90, 100); transform-origin: 391.165px 401.385px;" id="el7dob5nxaov6" class="animable"></path><path d="M391.47,403.16a.31.31,0,1,1-.61,0,.31.31,0,0,1,.61,0Z" style="fill: rgb(69, 90, 100); transform-origin: 391.165px 403.215px;" id="el2oon6w5copr" class="animable"></path><circle cx="359.53" cy="404.84" r="0.31" style="fill: rgb(69, 90, 100); transform-origin: 359.53px 404.84px;" id="elvpv0g2yidxd" class="animable"></circle><circle cx="361.64" cy="404.84" r="0.31" style="fill: rgb(69, 90, 100); transform-origin: 361.64px 404.84px;" id="el2lkdjksfvau" class="animable"></circle><circle cx="361.64" cy="406.56" r="0.31" style="fill: rgb(69, 90, 100); transform-origin: 361.64px 406.56px;" id="el4kppj67whqc" class="animable"></circle><circle cx="363.75" cy="404.84" r="0.31" style="fill: rgb(69, 90, 100); transform-origin: 363.75px 404.84px;" id="el9970j3b069d" class="animable"></circle><circle cx="363.75" cy="406.56" r="0.31" style="fill: rgb(69, 90, 100); transform-origin: 363.75px 406.56px;" id="elitnw4zvaje" class="animable"></circle><circle cx="365.86" cy="404.84" r="0.31" style="fill: rgb(69, 90, 100); transform-origin: 365.86px 404.84px;" id="elt96t3bbswzo" class="animable"></circle><circle cx="365.86" cy="406.56" r="0.31" style="fill: rgb(69, 90, 100); transform-origin: 365.86px 406.56px;" id="elq48u622eao" class="animable"></circle><circle cx="367.97" cy="404.84" r="0.31" style="fill: rgb(69, 90, 100); transform-origin: 367.97px 404.84px;" id="el89wpiyhgdmu" class="animable"></circle><circle cx="367.97" cy="406.56" r="0.31" style="fill: rgb(69, 90, 100); transform-origin: 367.97px 406.56px;" id="elp7rpy8c1g0r" class="animable"></circle><circle cx="370.08" cy="404.84" r="0.31" style="fill: rgb(69, 90, 100); transform-origin: 370.08px 404.84px;" id="elq3ih5fdywi" class="animable"></circle><circle cx="370.08" cy="406.56" r="0.31" style="fill: rgb(69, 90, 100); transform-origin: 370.08px 406.56px;" id="el5tjnq6kxb8c" class="animable"></circle><circle cx="372.19" cy="404.84" r="0.31" style="fill: rgb(69, 90, 100); transform-origin: 372.19px 404.84px;" id="elan86jmy8rd7" class="animable"></circle><circle cx="372.19" cy="406.56" r="0.31" style="fill: rgb(69, 90, 100); transform-origin: 372.19px 406.56px;" id="eln6hdji1rqy" class="animable"></circle><circle cx="374.29" cy="404.84" r="0.31" style="fill: rgb(69, 90, 100); transform-origin: 374.29px 404.84px;" id="elwzf0aa4y9jb" class="animable"></circle><circle cx="374.29" cy="406.56" r="0.31" style="fill: rgb(69, 90, 100); transform-origin: 374.29px 406.56px;" id="eloouou56dnq" class="animable"></circle><circle cx="376.4" cy="404.84" r="0.31" style="fill: rgb(69, 90, 100); transform-origin: 376.4px 404.84px;" id="eldpxpmnt9y4m" class="animable"></circle><circle cx="376.4" cy="406.56" r="0.31" style="fill: rgb(69, 90, 100); transform-origin: 376.4px 406.56px;" id="eli0bxjmxdsxn" class="animable"></circle><circle cx="378.51" cy="404.84" r="0.31" style="fill: rgb(69, 90, 100); transform-origin: 378.51px 404.84px;" id="elzqgxhtc3pdf" class="animable"></circle><circle cx="378.51" cy="406.56" r="0.31" style="fill: rgb(69, 90, 100); transform-origin: 378.51px 406.56px;" id="elfnklei3uy3e" class="animable"></circle><circle cx="380.62" cy="404.84" r="0.31" style="fill: rgb(69, 90, 100); transform-origin: 380.62px 404.84px;" id="elmf6iov2lvsj" class="animable"></circle><circle cx="380.62" cy="406.56" r="0.31" style="fill: rgb(69, 90, 100); transform-origin: 380.62px 406.56px;" id="el6kip3mvrrpu" class="animable"></circle><path d="M383,404.84a.31.31,0,0,1-.62,0,.31.31,0,1,1,.62,0Z" style="fill: rgb(69, 90, 100); transform-origin: 382.69px 404.84px;" id="elrjuhhzt5spn" class="animable"></path><path d="M383,406.56a.31.31,0,1,1-.62,0,.31.31,0,0,1,.62,0Z" style="fill: rgb(69, 90, 100); transform-origin: 382.69px 406.56px;" id="els41y6jg7vjb" class="animable"></path><path d="M385.14,404.84a.29.29,0,0,1-.3.3.3.3,0,0,1-.31-.3.31.31,0,0,1,.31-.31A.3.3,0,0,1,385.14,404.84Z" style="fill: rgb(69, 90, 100); transform-origin: 384.835px 404.835px;" id="el5wlgldhdt7" class="animable"></path><path d="M385.14,406.56a.3.3,0,0,1-.3.31.31.31,0,0,1-.31-.31.3.3,0,0,1,.31-.3A.29.29,0,0,1,385.14,406.56Z" style="fill: rgb(69, 90, 100); transform-origin: 384.835px 406.565px;" id="eljve5dyrv0x" class="animable"></path><path d="M387.25,404.84a.29.29,0,0,1-.3.3.3.3,0,0,1-.31-.3.31.31,0,0,1,.31-.31A.3.3,0,0,1,387.25,404.84Z" style="fill: rgb(69, 90, 100); transform-origin: 386.945px 404.835px;" id="el9blbxbke18m" class="animable"></path><path d="M387.25,406.56a.3.3,0,0,1-.3.31.31.31,0,0,1-.31-.31.3.3,0,0,1,.31-.3A.29.29,0,0,1,387.25,406.56Z" style="fill: rgb(69, 90, 100); transform-origin: 386.945px 406.565px;" id="elk5ca3o3ka7n" class="animable"></path><path d="M389.36,404.84a.31.31,0,0,1-.61,0,.31.31,0,1,1,.61,0Z" style="fill: rgb(69, 90, 100); transform-origin: 389.055px 404.785px;" id="el372nktdflwl" class="animable"></path><path d="M389.36,406.56a.31.31,0,1,1-.61,0,.31.31,0,0,1,.61,0Z" style="fill: rgb(69, 90, 100); transform-origin: 389.055px 406.615px;" id="elbxdtei097tp" class="animable"></path><path d="M391.47,404.84a.31.31,0,0,1-.61,0,.31.31,0,1,1,.61,0Z" style="fill: rgb(69, 90, 100); transform-origin: 391.165px 404.785px;" id="elzeak0kgppth" class="animable"></path><circle cx="361.64" cy="408.21" r="0.31" style="fill: rgb(69, 90, 100); transform-origin: 361.64px 408.21px;" id="elt4g5mf2qkl" class="animable"></circle><circle cx="363.75" cy="408.21" r="0.31" style="fill: rgb(69, 90, 100); transform-origin: 363.75px 408.21px;" id="elgs1rlx0vss" class="animable"></circle><path d="M364.06,409.94a.31.31,0,0,1-.62,0,.31.31,0,1,1,.62,0Z" style="fill: rgb(69, 90, 100); transform-origin: 363.75px 409.94px;" id="elr017jju63e8" class="animable"></path><circle cx="365.86" cy="408.21" r="0.31" style="fill: rgb(69, 90, 100); transform-origin: 365.86px 408.21px;" id="ele2pw91f0adf" class="animable"></circle><path d="M366.17,409.94a.31.31,0,0,1-.62,0,.31.31,0,1,1,.62,0Z" style="fill: rgb(69, 90, 100); transform-origin: 365.86px 409.94px;" id="elcjrkr92kx5" class="animable"></path><circle cx="367.97" cy="408.21" r="0.31" style="fill: rgb(69, 90, 100); transform-origin: 367.97px 408.21px;" id="elg9bemvxh0ip" class="animable"></circle><path d="M368.27,409.94a.29.29,0,0,1-.3.3.3.3,0,0,1-.31-.3.31.31,0,0,1,.31-.31A.3.3,0,0,1,368.27,409.94Z" style="fill: rgb(69, 90, 100); transform-origin: 367.965px 409.935px;" id="elzgubriqau29" class="animable"></path><circle cx="370.08" cy="408.21" r="0.31" style="fill: rgb(69, 90, 100); transform-origin: 370.08px 408.21px;" id="elnl7fqnyib2" class="animable"></circle><path d="M370.38,409.94a.29.29,0,0,1-.3.3.3.3,0,0,1-.31-.3.31.31,0,0,1,.31-.31A.3.3,0,0,1,370.38,409.94Z" style="fill: rgb(69, 90, 100); transform-origin: 370.075px 409.935px;" id="elbzqq3no7pkp" class="animable"></path><circle cx="372.19" cy="408.21" r="0.31" style="fill: rgb(69, 90, 100); transform-origin: 372.19px 408.21px;" id="elpg74hjftma9" class="animable"></circle><path d="M372.49,409.94a.31.31,0,0,1-.61,0,.31.31,0,1,1,.61,0Z" style="fill: rgb(69, 90, 100); transform-origin: 372.185px 409.884px;" id="elzsofq0r73i" class="animable"></path><circle cx="374.29" cy="408.21" r="0.31" style="fill: rgb(69, 90, 100); transform-origin: 374.29px 408.21px;" id="el6eocv8jkpao" class="animable"></circle><path d="M374.6,409.94a.31.31,0,0,1-.61,0,.31.31,0,1,1,.61,0Z" style="fill: rgb(69, 90, 100); transform-origin: 374.295px 409.884px;" id="el81dfkfzc7gm" class="animable"></path><circle cx="376.4" cy="408.21" r="0.31" style="fill: rgb(69, 90, 100); transform-origin: 376.4px 408.21px;" id="el02zebrru5jb6" class="animable"></circle><path d="M376.71,409.94a.3.3,0,0,1-.31.3.29.29,0,0,1-.3-.3.3.3,0,0,1,.3-.31A.31.31,0,0,1,376.71,409.94Z" style="fill: rgb(69, 90, 100); transform-origin: 376.405px 409.935px;" id="elcdygfvbjaow" class="animable"></path><circle cx="378.51" cy="408.21" r="0.31" style="fill: rgb(69, 90, 100); transform-origin: 378.51px 408.21px;" id="elne5rlwplqv" class="animable"></circle><path d="M378.82,409.94a.3.3,0,0,1-.31.3.29.29,0,0,1-.3-.3.3.3,0,0,1,.3-.31A.31.31,0,0,1,378.82,409.94Z" style="fill: rgb(69, 90, 100); transform-origin: 378.515px 409.935px;" id="el2blo6u7v13r" class="animable"></path><path d="M380.93,408.21a.31.31,0,0,1-.31.31.31.31,0,0,1,0-.62A.31.31,0,0,1,380.93,408.21Z" style="fill: rgb(69, 90, 100); transform-origin: 380.62px 408.21px;" id="elmih23z5k18" class="animable"></path><path d="M380.93,409.94a.3.3,0,0,1-.31.3.29.29,0,0,1-.3-.3.3.3,0,0,1,.3-.31A.31.31,0,0,1,380.93,409.94Z" style="fill: rgb(69, 90, 100); transform-origin: 380.625px 409.935px;" id="elmr87wi0rge" class="animable"></path><path d="M383,408.21a.31.31,0,1,1-.31-.31A.31.31,0,0,1,383,408.21Z" style="fill: rgb(69, 90, 100); transform-origin: 382.69px 408.21px;" id="el74h8545am4c" class="animable"></path><path d="M383,409.94a.31.31,0,0,1-.62,0,.31.31,0,1,1,.62,0Z" style="fill: rgb(69, 90, 100); transform-origin: 382.69px 409.94px;" id="el23of56z5u8t" class="animable"></path><path d="M385.14,408.21a.3.3,0,0,1-.3.31.31.31,0,0,1,0-.62A.3.3,0,0,1,385.14,408.21Z" style="fill: rgb(69, 90, 100); transform-origin: 384.835px 408.21px;" id="ellgmt3xguowq" class="animable"></path><path d="M385.14,409.94a.29.29,0,0,1-.3.3.3.3,0,0,1-.31-.3.31.31,0,0,1,.31-.31A.3.3,0,0,1,385.14,409.94Z" style="fill: rgb(69, 90, 100); transform-origin: 384.835px 409.935px;" id="elbt0u0tjt68q" class="animable"></path><path d="M387.25,408.21a.3.3,0,0,1-.3.31.31.31,0,0,1,0-.62A.3.3,0,0,1,387.25,408.21Z" style="fill: rgb(69, 90, 100); transform-origin: 386.945px 408.21px;" id="el1es9l2foewk" class="animable"></path><path d="M387.25,409.94a.29.29,0,0,1-.3.3.3.3,0,0,1-.31-.3.31.31,0,0,1,.31-.31A.3.3,0,0,1,387.25,409.94Z" style="fill: rgb(69, 90, 100); transform-origin: 386.945px 409.935px;" id="el3qcnfrmmltv" class="animable"></path><path d="M389.36,408.21a.31.31,0,1,1-.3-.31A.31.31,0,0,1,389.36,408.21Z" style="fill: rgb(69, 90, 100); transform-origin: 389.05px 408.21px;" id="eld5y3uc242k" class="animable"></path><path d="M397.3,330.52s-.17-.11-.45-.37L395.64,329a18.12,18.12,0,0,0-1.95-1.73c-.4-.32-.83-.65-1.27-1l-.7-.55c-.25-.18-.52-.34-.78-.51a29.86,29.86,0,0,0-3.59-2.13c-.68-.32-1.35-.73-2.09-1l-2.3-.88a33,33,0,0,0-10.76-1.72,32.44,32.44,0,0,0-10.72,2c-.79.31-1.57.58-2.3.9l-2.08,1-1,.5-.91.57-1.7,1.07a42.56,42.56,0,0,0-4.75,3.75l-1.23,1.1a2.3,2.3,0,0,1-.46.36,2.53,2.53,0,0,1,.38-.44l1.17-1.17a37.06,37.06,0,0,1,4.69-3.91l1.69-1.1.91-.59,1-.52L359,322c.74-.33,1.53-.61,2.32-.93a31.55,31.55,0,0,1,21.81-.31l2.32.91c.75.31,1.43.72,2.11,1.06a29.79,29.79,0,0,1,3.6,2.2c.26.19.53.35.78.53l.69.58,1.26,1.05a18.16,18.16,0,0,1,1.91,1.8l1.14,1.2A3.34,3.34,0,0,1,397.3,330.52Z" style="fill: rgb(38, 50, 56); transform-origin: 372.175px 324.849px;" id="el89e90d45wi3" class="animable"></path><path d="M390.22,340.29a31.33,31.33,0,0,0-4.66-3.77c-.4-.24-.8-.51-1.25-.75l-1.42-.67c-.25-.11-.5-.24-.76-.34l-.81-.29c-.54-.18-1.1-.4-1.69-.57a29.26,29.26,0,0,0-7.85-1.07,27.57,27.57,0,0,0-7.85,1.17l-1.7.56c-.54.19-1,.46-1.54.67a19.5,19.5,0,0,0-2.67,1.43,15.65,15.65,0,0,0-2,1.43,10.09,10.09,0,0,0-1.44,1.23,9,9,0,0,1-1.22,1.07,11.91,11.91,0,0,1,1.08-1.22,9.47,9.47,0,0,1,1.39-1.31,17.28,17.28,0,0,1,2-1.51,18.27,18.27,0,0,1,2.69-1.51c.5-.22,1-.51,1.56-.71l1.72-.59a27.36,27.36,0,0,1,8-1.23,28.67,28.67,0,0,1,8,1.13c.6.17,1.16.41,1.72.6q.4.16.81.3l.77.37,1.43.71c.45.25.85.54,1.25.79s.79.48,1.12.74l.92.77.79.68c.23.22.41.45.59.64A9,9,0,0,1,390.22,340.29Z" style="fill: rgb(38, 50, 56); transform-origin: 371.79px 336.35px;" id="elvdhgcdsyir" class="animable"></path><path d="M382.44,349.6a30.15,30.15,0,0,0-2.84-2,17.13,17.13,0,0,0-8-2.07,15.44,15.44,0,0,0-8,1.92c-1.84,1.09-2.71,2.13-2.8,2a3.27,3.27,0,0,1,.61-.72,5,5,0,0,1,.81-.76,8.75,8.75,0,0,1,1.19-.87,14.78,14.78,0,0,1,8.17-2.14,16.46,16.46,0,0,1,8.14,2.28l.66.42.54.43a6,6,0,0,1,.84.73C382.25,349.33,382.47,349.58,382.44,349.6Z" style="fill: rgb(38, 50, 56); transform-origin: 371.621px 347.276px;" id="elpepkpz3phlp" class="animable"></path></g><g id="freepik--musical-notes--inject-2" class="animable" style="transform-origin: 374.285px 214.201px;"><path d="M361.66,222.45a5.07,5.07,0,1,1-5.56-4.53A5.06,5.06,0,0,1,361.66,222.45Z" style="fill: rgb(38, 50, 56); transform-origin: 356.616px 222.963px;" id="elof5rnc40un" class="animable"></path><path d="M360.76,220.85c-.23.21-3.94-3.64-7.56-9.08s-6.45-9.83-6.24-10,3.58,3.95,7.17,9.37S361,220.64,360.76,220.85Z" style="fill: rgb(38, 50, 56); transform-origin: 353.861px 211.312px;" id="elmzhwx7hdu5a" class="animable"></path><path d="M355.7,195.25c.28.07-.52,2.81-3.17,4.91s-5.49,2.32-5.49,2,2.42-1,4.79-2.9S355.4,195.11,355.7,195.25Z" style="fill: rgb(38, 50, 56); transform-origin: 351.396px 198.761px;" id="elp4f5yraghsb" class="animable"></path><path d="M358.38,199.78c.29,0-.39,2.8-3.13,4.67s-5.54,1.57-5.47,1.28,2.46-.51,4.84-2.2S358.08,199.65,358.38,199.78Z" style="fill: rgb(38, 50, 56); transform-origin: 354.11px 202.86px;" id="elnr9rx3gn9td" class="animable"></path><path d="M367.61,172.26a6.14,6.14,0,1,1,3.35-8A6.15,6.15,0,0,1,367.61,172.26Z" style="fill: rgb(38, 50, 56); transform-origin: 365.274px 166.581px;" id="eluiqvmdt8e9a" class="animable"></path><path d="M369.16,170.66c-.51-.3,2.55-6,7.64-12.14s9.31-10.74,9.76-10.42-3.06,5.76-8.11,11.77S369.66,171,369.16,170.66Z" style="fill: rgb(38, 50, 56); transform-origin: 377.852px 159.38px;" id="eluivgzk01ct" class="animable"></path><path d="M399.15,163.49c-.12.48-5.12-.68-9.46-5.12a14.41,14.41,0,0,1-3.89-6.77c-.45-2,.05-3.32.3-3.27s.4,1.19,1.14,2.82a19.64,19.64,0,0,0,4,5.74C395.1,160.89,399.43,162.88,399.15,163.49Z" style="fill: rgb(38, 50, 56); transform-origin: 392.391px 155.96px;" id="elzxugng6okrc" class="animable"></path><path d="M380.19,187.65a6.14,6.14,0,1,1,3.35-8A6.14,6.14,0,0,1,380.19,187.65Z" style="fill: rgb(38, 50, 56); transform-origin: 377.856px 181.971px;" id="ela25s98b7use" class="animable"></path><path d="M381.74,186.05c-.51-.3,2.56-6.05,7.64-12.13s9.31-10.74,9.77-10.43-3.07,5.76-8.12,11.78S382.25,186.35,381.74,186.05Z" style="fill: rgb(38, 50, 56); transform-origin: 390.438px 174.769px;" id="elca7ers7aoam" class="animable"></path><path d="M396.62,166.83c-.08.55-4.92-.25-9.14-4.27s-5.32-8.77-4.77-8.88,2.4,3.77,6.24,7.33S396.81,166.23,396.62,166.83Z" style="fill: rgb(38, 50, 56); transform-origin: 389.603px 160.331px;" id="elt1nw9074t4h" class="animable"></path><path d="M353.58,275.75a4.57,4.57,0,1,1-2.31-6A4.57,4.57,0,0,1,353.58,275.75Z" style="fill: rgb(38, 50, 56); transform-origin: 349.394px 273.917px;" id="elzwklgwfmlbd" class="animable"></path><path d="M353.59,274.09c-.43.1-1.73-4.57-2.11-10.47S351,253,351.38,253s1.31,4.68,1.68,10.52S354,274,353.59,274.09Z" style="fill: rgb(38, 50, 56); transform-origin: 352.436px 263.546px;" id="el25sw6axx5lw" class="animable"></path><path d="M366.08,254.81c.18.32-3.11,2.26-7.73,2.1a10.66,10.66,0,0,1-5.58-1.65c-1.29-.87-1.68-1.82-1.52-1.92s.83.44,2.07.94a14.49,14.49,0,0,0,5.09,1C362.56,255.49,365.92,254.34,366.08,254.81Z" style="fill: rgb(38, 50, 56); transform-origin: 358.652px 255.124px;" id="elsklp6mjxzwg" class="animable"></path><path d="M368.28,277.58a4.57,4.57,0,1,1-2.31-6A4.57,4.57,0,0,1,368.28,277.58Z" style="fill: rgb(38, 50, 56); transform-origin: 364.094px 275.747px;" id="elz7nk0j8dus" class="animable"></path><path d="M368.29,275.92c-.43.11-1.73-4.57-2.11-10.47s-.51-10.58-.1-10.64,1.31,4.68,1.68,10.52S368.72,275.83,368.29,275.92Z" style="fill: rgb(38, 50, 56); transform-origin: 367.134px 265.366px;" id="eltpa56cpv7i" class="animable"></path><path d="M366.43,257.91c.24.34-2.78,2.4-7.12,2.4s-7.38-2-7.14-2.34,3.24.8,7.14.75S366.23,257.49,366.43,257.91Z" style="fill: rgb(38, 50, 56); transform-origin: 359.3px 259.065px;" id="elxek7rspy7y" class="animable"></path><path d="M392,227.63a2.26,2.26,0,1,1,1.39-2.89A2.26,2.26,0,0,1,392,227.63Z" style="fill: rgb(38, 50, 56); transform-origin: 391.26px 225.495px;" id="elfmtcqw25gq" class="animable"></path><path d="M392.57,227.07c-.18-.12,1.06-2.18,3-4.32s3.64-3.78,3.8-3.65-1.24,2.06-3.21,4.18S392.75,227.19,392.57,227.07Z" style="fill: rgb(38, 50, 56); transform-origin: 395.968px 223.084px;" id="el78omzlepzla" class="animable"></path><path d="M403.74,225c-.05.18-1.86-.35-3.38-2.06a5.31,5.31,0,0,1-1.3-2.57c-.13-.76.08-1.22.17-1.2s.13.45.37,1.06a7.23,7.23,0,0,0,1.35,2.19C402.3,224,403.86,224.78,403.74,225Z" style="fill: rgb(38, 50, 56); transform-origin: 401.383px 222.101px;" id="elgfkicgau1c4" class="animable"></path><path d="M396.31,233.53a2.26,2.26,0,1,1,1.38-2.88A2.26,2.26,0,0,1,396.31,233.53Z" style="fill: rgb(38, 50, 56); transform-origin: 395.558px 231.399px;" id="elu0lag1t7yqa" class="animable"></path><path d="M396.91,233c-.18-.12,1.06-2.17,3-4.32s3.63-3.77,3.79-3.65-1.23,2.06-3.21,4.18S397.09,233.09,396.91,233Z" style="fill: rgb(38, 50, 56); transform-origin: 400.303px 229.014px;" id="el4wo3cf5wvz3" class="animable"></path><path d="M402.75,226.18c0,.2-1.81-.18-3.28-1.74s-1.79-3.33-1.59-3.36.81,1.43,2.16,2.82S402.83,226,402.75,226.18Z" style="fill: rgb(38, 50, 56); transform-origin: 400.29px 223.654px;" id="el1m137zrs85t" class="animable"></path></g><defs>     <filter id="active" height="200%">         <feMorphology in="SourceAlpha" result="DILATED" operator="dilate" radius="2"></feMorphology>                <feFlood flood-color="#32DFEC" flood-opacity="1" result="PINK"></feFlood>        <feComposite in="PINK" in2="DILATED" operator="in" result="OUTLINE"></feComposite>        <feMerge>            <feMergeNode in="OUTLINE"></feMergeNode>            <feMergeNode in="SourceGraphic"></feMergeNode>        </feMerge>    </filter>    <filter id="hover" height="200%">        <feMorphology in="SourceAlpha" result="DILATED" operator="dilate" radius="2"></feMorphology>                <feFlood flood-color="#ff0000" flood-opacity="0.5" result="PINK"></feFlood>        <feComposite in="PINK" in2="DILATED" operator="in" result="OUTLINE"></feComposite>        <feMerge>            <feMergeNode in="OUTLINE"></feMergeNode>            <feMergeNode in="SourceGraphic"></feMergeNode>        </feMerge>            <feColorMatrix type="matrix" values="0   0   0   0   0                0   1   0   0   0                0   0   0   0   0                0   0   0   1   0 "></feColorMatrix>    </filter></defs></svg>